<?xml version="1.0" standalone="no"?>
<!DOCTYPE svg PUBLIC "-//W3C//DTD SVG 20010904//EN"
 "http://www.w3.org/TR/2001/REC-SVG-20010904/DTD/svg10.dtd">
<svg version="1.0" xmlns="http://www.w3.org/2000/svg"
 width="512.000000pt" height="512.000000pt" viewBox="0 0 512.000000 512.000000"
 preserveAspectRatio="xMidYMid meet">
<metadata>
Created by potrace 1.14, written by Peter Selinger 2001-2017
</metadata>
<g transform="translate(0.000000,512.000000) scale(0.100000,-0.100000)"
fill="#000000" stroke="none">
<path d="M2455 4660 c-3 -5 -3 -16 1 -22 5 -8 0 -7 -11 2 -17 14 -18 13 -12
-4 6 -14 5 -16 -5 -8 -10 8 -13 4 -14 -14 -1 -13 2 -24 8 -24 5 0 6 5 2 12 -5
7 -3 8 5 4 9 -6 9 -12 -3 -25 -9 -10 -16 -22 -16 -27 0 -5 5 -2 10 6 8 11 10
8 7 -15 -3 -16 1 -36 7 -44 9 -12 8 -13 -3 -6 -11 6 -13 4 -8 -8 3 -9 2 -19
-2 -21 -5 -3 -7 -18 -5 -33 12 -87 12 -103 3 -103 -6 0 -7 5 -3 12 4 7 3 8 -4
4 -16 -10 -5 -32 24 -45 20 -9 24 -9 18 1 -6 9 -3 9 9 -1 16 -13 22 -8 18 13
-1 5 6 3 16 -4 10 -8 15 -10 11 -6 -4 5 -3 15 4 23 8 10 8 12 -4 8 -9 -4 -15
0 -15 9 0 8 4 13 8 10 4 -2 10 0 14 6 3 5 0 10 -9 10 -12 0 -13 6 -5 35 6 20
9 43 7 53 -3 21 2 25 24 17 10 -4 15 -11 12 -16 -3 -5 0 -9 6 -9 6 0 14 -8 17
-17 9 -25 29 -43 37 -35 4 3 4 -1 0 -11 -5 -14 -2 -16 12 -10 17 6 17 5 5 -10
-12 -15 -11 -17 3 -17 8 0 23 -12 32 -26 11 -17 24 -24 36 -21 10 3 16 1 12
-4 -3 -5 5 -8 18 -7 25 2 32 29 14 57 -6 9 -5 12 1 8 6 -4 9 17 8 56 0 34 4
68 10 76 7 11 7 13 -1 8 -7 -4 -14 0 -18 8 -3 8 -1 17 5 21 5 3 7 14 4 25 -5
14 -1 19 12 19 17 1 17 1 1 11 -10 5 -18 15 -18 20 0 6 4 8 8 5 5 -3 9 1 9 9
0 8 -4 12 -9 9 -4 -3 -8 3 -8 13 0 14 -2 15 -9 4 -5 -7 -10 -9 -12 -3 -2 6
-13 12 -24 14 -15 2 -20 -2 -19 -19 0 -12 -3 -20 -8 -17 -5 3 -6 -7 -2 -22 6
-21 4 -25 -7 -19 -11 6 -12 5 -1 -6 6 -7 12 -19 12 -27 0 -8 -5 -10 -12 -6
-10 6 -10 5 -1 -7 10 -12 10 -18 0 -29 -8 -8 -8 -11 0 -6 7 4 9 -1 6 -14 -3
-11 -10 -23 -17 -27 -6 -3 -8 -3 -4 1 4 5 -5 19 -20 33 -15 14 -18 19 -7 12
19 -13 19 -13 2 7 -9 11 -14 23 -11 27 3 3 -5 4 -18 1 -12 -2 -18 -2 -11 2 8
4 7 10 -4 24 -9 10 -21 16 -27 13 -6 -3 -8 -3 -4 2 4 4 0 14 -8 22 -8 8 -11
19 -8 25 4 7 2 8 -4 4 -7 -4 -12 0 -13 11 0 16 -1 16 -9 -2 -8 -18 -9 -18 -9
5 -1 20 -3 22 -11 10 -9 -13 -14 -7 -11 13 2 10 -7 9 -14 -3z"/>
<path d="M2203 4643 c4 -6 -1 -17 -10 -24 -14 -12 -16 -12 -9 1 4 8 1 7 -7 -3
-11 -14 -16 -15 -20 -5 -3 7 -6 8 -6 2 -1 -7 -14 -10 -32 -8 -22 3 -28 0 -23
-9 6 -9 3 -8 -8 1 -14 11 -17 10 -23 -8 -3 -11 -10 -18 -14 -15 -5 2 -6 -7 -3
-21 3 -19 7 -22 13 -12 6 9 9 9 9 1 0 -6 -5 -15 -11 -18 -6 -5 -4 -12 8 -22
17 -14 17 -14 -1 -9 -16 5 -17 4 -7 -8 7 -8 9 -21 5 -27 -4 -8 -3 -9 4 -5 7 4
12 3 12 -3 0 -5 -6 -12 -12 -14 -9 -4 -7 -6 3 -6 9 -1 16 -7 17 -13 4 -54 11
-109 16 -117 4 -5 2 -12 -3 -16 -16 -9 -1 -34 16 -28 9 4 14 2 10 -3 -5 -8 43
-12 51 -4 1 1 16 3 32 4 17 0 35 8 40 16 9 13 10 13 10 0 0 -13 1 -13 10 0 5
8 10 11 10 6 0 -5 8 -2 17 5 15 12 16 12 10 -5 -6 -15 -5 -17 6 -8 8 7 18 8
22 4 5 -4 4 -1 0 7 -6 11 -4 13 8 8 10 -3 17 -2 17 4 0 6 4 8 9 4 5 -3 12 -1
15 4 4 5 1 13 -5 17 -8 5 -9 3 -4 -6 6 -9 4 -11 -5 -5 -10 6 -10 11 3 20 22
16 22 26 0 18 -10 -4 -14 -2 -10 4 10 16 -26 10 -41 -7 -8 -8 -11 -10 -8 -4 3
7 -1 17 -9 24 -13 11 -14 10 -9 -4 5 -12 2 -15 -10 -10 -12 5 -15 2 -10 -12 5
-18 5 -18 -6 -1 -10 15 -14 16 -31 3 -25 -17 -56 -10 -64 15 -7 22 12 62 26
54 5 -4 9 -1 9 6 0 8 4 8 15 -1 13 -11 14 -10 8 6 -6 16 -4 17 8 7 12 -9 18
-10 27 -1 8 8 15 8 27 -2 13 -11 14 -10 9 5 -5 13 -4 16 4 11 7 -4 12 -4 13 1
0 4 2 16 4 26 2 9 -1 15 -6 11 -5 -3 -9 0 -9 7 0 6 -8 9 -20 6 -11 -3 -20 0
-20 6 0 7 -5 4 -11 -6 -8 -14 -14 -16 -25 -6 -11 9 -14 8 -14 -2 0 -11 -2 -11
-10 1 -7 11 -10 11 -10 2 0 -10 -5 -10 -22 -1 -20 10 -22 10 -13 -2 6 -8 2 -6
-8 5 -17 18 -17 21 -2 32 12 9 13 13 3 17 -11 4 -11 6 0 6 7 1 11 5 7 10 -6
11 28 7 47 -5 6 -4 8 -3 5 3 -4 6 4 13 18 15 14 3 25 2 25 -3 0 -8 20 -7 37 4
6 4 11 23 11 43 0 25 -3 33 -9 23 -7 -12 -9 -12 -9 0 0 11 -3 11 -17 0 -9 -8
-14 -9 -10 -2 8 13 -18 12 -30 -2 -4 -4 -2 -5 6 0 9 5 12 4 7 -3 -4 -6 -13 -9
-21 -6 -8 4 -13 10 -10 14 3 5 0 12 -6 16 -7 4 -9 3 -6 -3z"/>
<path d="M2850 4623 c0 -7 -5 -13 -11 -13 -5 0 -8 4 -5 8 3 5 0 9 -7 9 -7 0
-12 -11 -12 -23 2 -24 24 -58 33 -49 3 3 -3 12 -14 21 -18 15 -18 15 3 4 12
-5 24 -14 27 -19 4 -5 17 -8 31 -7 13 2 22 -1 19 -5 -3 -5 1 -9 8 -9 10 0 10
-2 -1 -9 -10 -6 -10 -10 -2 -16 9 -5 8 -14 -4 -32 -10 -14 -12 -22 -6 -19 6 4
11 2 11 -3 0 -6 -4 -11 -9 -11 -5 0 -11 -9 -14 -20 -3 -13 -1 -18 6 -13 8 5 8
2 0 -8 -10 -12 -10 -18 0 -29 8 -8 8 -11 1 -7 -7 4 -14 0 -18 -8 -3 -8 0 -15
7 -15 7 0 4 -5 -6 -11 -15 -9 -16 -13 -5 -27 10 -12 10 -14 1 -8 -7 4 -13 2
-13 -3 0 -6 5 -11 10 -11 6 0 10 -5 10 -11 0 -5 -6 -7 -12 -3 -9 5 -9 2 1 -9
15 -18 26 -23 16 -7 -3 6 -1 10 4 10 6 0 11 -5 11 -11 0 -8 6 -7 17 2 11 10
14 10 9 2 -10 -18 4 -16 25 3 14 13 16 21 8 35 -6 13 -6 19 0 19 6 0 8 6 5 14
-3 8 -1 17 5 20 6 4 7 14 4 23 -5 11 -3 14 6 8 10 -6 11 -3 2 14 -8 14 -8 21
-1 21 5 0 10 5 10 11 0 5 -6 7 -12 3 -7 -4 -4 3 7 16 12 14 14 20 5 15 -12 -7
-13 -6 -3 7 7 8 10 18 6 21 -3 4 -1 7 6 7 7 0 9 5 6 10 -3 6 -1 10 5 10 6 0 8
6 4 13 -5 9 -4 9 6 0 7 -6 19 -9 28 -6 11 5 13 3 7 -7 -6 -10 -4 -11 6 -4 20
12 40 14 33 3 -3 -5 -10 -6 -16 -3 -7 4 -8 2 -4 -4 11 -18 34 -3 45 29 7 22 7
28 -1 23 -7 -5 -9 -2 -6 8 4 10 0 14 -15 13 -12 -1 -25 3 -29 9 -5 7 -8 7 -8
-3 0 -9 -5 -8 -17 6 -10 10 -15 14 -10 9 13 -18 7 -29 -8 -16 -8 7 -15 9 -15
5 0 -5 -9 0 -19 9 -12 11 -21 13 -25 7 -4 -6 -13 -8 -21 -5 -8 4 -13 10 -10
14 3 5 -11 7 -30 5 -19 -2 -33 0 -31 4 3 4 -4 7 -15 7 -10 0 -19 -6 -19 -13z
m80 -7 c0 -3 -4 -8 -10 -11 -5 -3 -10 -1 -10 4 0 6 5 11 10 11 6 0 10 -2 10
-4z"/>
<path d="M2315 4600 c3 -5 8 -10 11 -10 2 0 4 5 4 10 0 6 -5 10 -11 10 -5 0
-7 -4 -4 -10z"/>
<path d="M1900 4550 c0 -6 -4 -10 -10 -10 -5 0 -19 -8 -30 -17 -14 -13 -17
-20 -8 -30 6 -7 6 -13 1 -13 -5 0 -8 -12 -7 -27 1 -16 -2 -35 -7 -44 -5 -9 -4
-20 2 -26 8 -8 7 -13 -2 -18 -8 -5 -10 -4 -5 3 10 17 1 15 -14 -4 -11 -12 -11
-15 -1 -12 8 2 15 -5 16 -15 2 -10 -1 -14 -8 -10 -6 4 -8 0 -5 -9 9 -22 -27
-16 -49 8 -10 11 -14 13 -8 4 6 -10 2 -9 -12 4 -13 10 -20 23 -17 27 3 5 -2 6
-10 3 -9 -3 -16 -1 -16 6 0 6 -4 8 -10 5 -5 -3 -10 1 -10 10 0 11 -5 15 -16
11 -8 -3 -12 -2 -9 4 3 6 -3 10 -14 10 -12 0 -21 5 -21 11 0 5 6 7 13 3 8 -5
8 -2 -2 9 -14 18 -26 23 -16 8 3 -6 -3 -10 -12 -10 -43 -1 -48 -5 -48 -33 -1
-20 3 -27 13 -23 8 3 10 1 5 -8 -12 -18 -10 -31 7 -45 13 -12 13 -13 0 -7 -13
6 -13 5 0 -7 27 -24 39 -53 29 -71 -8 -13 -6 -15 5 -11 11 4 14 -1 12 -20 -2
-14 0 -23 4 -21 5 3 11 -2 14 -11 4 -10 2 -13 -7 -9 -6 4 -4 0 6 -8 9 -8 17
-21 17 -30 0 -22 59 -41 67 -22 3 8 8 13 12 10 4 -2 8 2 8 10 0 8 -5 11 -10 8
-6 -4 -8 0 -4 10 3 10 2 17 -4 17 -6 0 -7 5 -4 10 3 6 -1 18 -10 27 -13 13
-14 18 -3 24 10 7 8 9 -6 9 -15 0 -16 3 -6 15 11 13 10 14 -2 10 -8 -3 -15 0
-15 7 0 8 9 14 19 14 10 0 18 -7 18 -16 0 -13 1 -13 10 0 8 13 10 12 10 -2 0
-10 6 -17 13 -15 6 1 11 -4 9 -11 -2 -9 4 -11 17 -7 16 5 19 2 16 -15 -4 -19
-2 -20 12 -8 14 11 16 11 11 -3 -4 -9 -1 -16 8 -16 7 0 11 4 8 9 -3 4 2 8 10
8 9 0 16 5 16 11 0 7 8 18 18 26 9 8 11 12 5 8 -8 -4 -13 0 -13 9 0 9 5 16 11
16 8 0 7 6 -2 17 -10 11 -10 14 -1 9 6 -4 12 -2 12 3 0 6 -5 11 -11 11 -7 0
-4 11 6 26 9 15 12 23 6 20 -6 -4 -11 -2 -11 3 0 14 11 13 31 -2 9 -7 14 -18
12 -24 -3 -7 5 -25 16 -40 15 -18 18 -29 10 -33 -7 -5 -5 -9 5 -13 9 -4 16
-12 16 -20 0 -16 52 -15 58 1 2 7 9 9 15 5 7 -3 9 -3 5 2 -4 4 -2 15 5 24 10
14 10 14 -5 3 -10 -8 -19 -9 -22 -3 -3 5 0 12 6 14 10 4 10 6 1 6 -7 1 -13 12
-13 26 0 14 -4 25 -9 25 -5 0 -12 7 -15 16 -4 10 -2 13 7 9 6 -4 5 -1 -4 7 -9
7 -15 21 -13 31 1 10 -4 17 -14 17 -8 0 -12 3 -9 7 4 3 2 12 -5 20 -9 11 -7
12 7 7 11 -5 8 2 -9 19 -19 19 -25 33 -21 50 5 18 1 26 -19 35 -16 7 -26 8
-26 2z"/>
<path d="M3302 4525 c4 -4 2 -15 -5 -23 -9 -13 -9 -14 1 -8 6 4 12 4 12 1 0
-3 -13 -11 -30 -16 -16 -6 -30 -16 -30 -21 0 -6 7 -5 18 3 9 7 6 1 -8 -13 -14
-14 -27 -24 -29 -22 -2 2 -11 -5 -18 -16 -8 -11 -19 -17 -25 -14 -6 4 -8 3 -5
-3 4 -6 -1 -19 -9 -29 -14 -17 -15 -17 -10 -1 8 27 -3 20 -14 -9 -6 -15 -14
-22 -22 -18 -7 4 -8 3 -4 -5 4 -6 0 -14 -8 -17 -9 -3 -13 -11 -9 -17 4 -6 0
-8 -10 -4 -17 6 -31 -18 -20 -36 4 -7 0 -7 -9 1 -14 11 -16 10 -11 -7 3 -12
13 -22 22 -23 32 -3 36 -4 50 -12 9 -6 12 -5 8 1 -9 14 19 37 34 27 7 -4 9 -3
5 4 -3 6 -2 13 4 17 5 3 10 2 10 -3 0 -6 7 -13 16 -16 8 -3 12 -2 9 4 -3 6 -1
10 5 10 6 0 13 -7 17 -16 5 -13 7 -13 14 -2 7 10 9 10 9 1 0 -7 7 -13 16 -13
9 0 12 -5 8 -12 -6 -10 -5 -10 8 0 12 10 18 9 28 -4 15 -17 20 -64 7 -64 -4 0
-5 -5 -2 -10 4 -6 11 -7 17 -4 8 5 9 1 4 -12 -4 -10 -4 -15 0 -11 4 4 13 2 21
-5 11 -9 12 -7 8 8 -4 12 0 9 9 -6 8 -14 15 -19 16 -12 0 7 4 11 9 7 5 -3 13
0 17 6 4 7 3 9 -4 5 -14 -8 -20 21 -11 62 4 19 3 32 -3 32 -6 0 -4 8 3 17 8 9
9 14 3 10 -7 -4 -11 5 -11 23 0 18 4 27 11 22 6 -3 3 6 -6 20 -10 15 -14 29
-10 32 11 6 9 37 -3 56 -5 9 -4 15 3 18 8 2 8 13 -3 39 -14 33 -14 35 2 22 16
-13 17 -12 4 4 -8 10 -20 16 -27 13 -8 -3 -11 0 -7 11 5 12 2 13 -13 6 -21
-11 -47 -6 -39 7 3 5 0 12 -7 16 -7 4 -10 4 -6 -1z m29 -132 c8 -10 9 -14 2
-10 -6 4 -14 3 -18 -3 -3 -5 -1 -10 6 -10 7 0 9 -3 6 -7 -4 -3 -2 -12 4 -20 7
-8 8 -13 1 -13 -5 0 -10 -6 -9 -12 0 -7 -1 -22 -1 -32 -2 -18 -3 -18 -21 3
-13 15 -21 18 -26 10 -6 -8 -10 -7 -17 5 -5 9 -14 13 -20 10 -7 -5 -8 -2 -2 7
5 8 9 17 10 22 1 4 2 10 3 13 0 4 9 0 18 -7 13 -11 15 -11 9 -1 -5 8 -1 19 10
28 11 9 13 12 5 8 -9 -5 -12 -3 -7 5 4 6 12 9 17 6 5 -4 9 -1 9 4 0 15 5 14
21 -6z"/>
<path d="M2075 4369 c-4 -6 -5 -12 -2 -15 2 -3 7 2 10 11 7 17 1 20 -8 4z"/>
<path d="M3597 4358 c-4 -12 -11 -18 -20 -15 -13 5 -15 1 -19 -42 -1 -11 -6
-17 -10 -15 -4 3 -8 -2 -8 -10 0 -8 -7 -19 -15 -24 -9 -4 -17 -18 -18 -29 0
-12 -4 -20 -8 -17 -4 2 -13 -4 -20 -13 -10 -12 -10 -14 -1 -9 23 14 12 -6 -15
-28 -26 -20 -41 -21 -35 -3 1 5 -2 6 -8 2 -8 -5 -7 -11 1 -21 10 -13 15 -12
33 3 l21 18 -21 -25 c-34 -40 -37 -59 -9 -56 16 2 22 -1 18 -10 -3 -8 0 -14 7
-14 6 0 8 -4 5 -10 -3 -5 -2 -10 4 -10 5 0 12 6 14 13 4 10 6 10 6 0 1 -7 8
-13 16 -13 8 0 15 -5 15 -11 0 -5 5 -7 12 -3 7 5 9 2 6 -7 -4 -10 2 -15 20
-17 14 -1 31 -7 37 -14 7 -8 6 -9 -4 -3 -9 5 -12 4 -7 -3 4 -6 14 -8 23 -5 10
4 14 2 10 -4 -4 -6 -1 -10 5 -9 20 3 38 16 38 29 0 6 -7 2 -16 -9 -13 -15 -13
-13 1 10 16 27 16 29 -1 45 -15 13 -16 13 -8 1 6 -10 3 -10 -7 2 -9 9 -19 14
-23 11 -3 -4 -6 -1 -6 5 0 7 -6 11 -12 10 -7 -2 -12 3 -10 10 1 8 -2 11 -7 8
-5 -4 -22 5 -38 20 -15 14 -22 23 -15 19 9 -5 15 1 19 14 3 11 9 18 14 16 4
-3 6 4 4 15 -2 11 0 18 6 15 5 -4 9 -1 9 5 0 6 4 9 8 6 4 -2 7 7 7 22 -1 31
13 55 27 46 5 -3 12 3 15 15 3 11 9 19 13 16 4 -2 7 5 6 18 0 12 4 21 11 20 7
-2 10 4 7 12 -4 8 -11 12 -17 8 -7 -4 -8 0 -3 13 4 10 4 15 1 12 -4 -4 -17 -3
-30 2 -19 7 -24 5 -28 -12z"/>
<path d="M1339 4285 c-1 -5 -1 -13 0 -17 0 -4 -8 -5 -19 -3 -11 2 -19 1 -18
-3 1 -4 -1 -14 -5 -22 -12 -33 -15 -60 -6 -66 5 -3 7 -10 4 -15 -4 -5 -2 -9 3
-9 5 0 8 -20 7 -44 -2 -37 1 -43 14 -39 13 4 13 2 -1 -10 -22 -17 -23 -28 -4
-21 11 4 14 -1 12 -20 -2 -14 1 -26 5 -26 5 0 9 -5 9 -11 0 -5 -4 -7 -10 -4
-6 3 -7 -1 -4 -9 3 -9 11 -16 18 -16 6 0 4 -5 -4 -10 -13 -9 -13 -10 0 -10 13
0 13 -1 0 -10 -8 -5 -10 -10 -5 -10 6 0 16 -9 23 -21 11 -17 11 -20 0 -13 -7
4 -9 3 -5 -1 9 -11 38 -16 34 -7 -5 11 41 51 49 43 4 -3 4 0 0 7 -5 7 -15 11
-24 7 -14 -5 -14 -4 0 12 17 20 13 47 -5 37 -7 -4 -1 5 13 19 14 13 27 24 30
23 12 -3 49 32 42 40 -4 4 0 3 10 -4 19 -15 34 0 22 21 -6 9 -4 9 8 -1 13 -10
17 -10 21 0 3 8 6 6 6 -6 1 -16 3 -16 17 -6 12 11 15 11 12 -1 -2 -8 3 -13 10
-12 6 2 12 -2 12 -8 0 -6 7 -3 16 5 8 9 19 14 24 11 5 -3 11 -1 15 4 8 14 -54
81 -76 81 -13 0 -17 5 -13 18 5 13 4 14 -4 3 -10 -14 -36 -6 -27 9 3 5 -4 7
-16 5 -12 -2 -19 -2 -16 1 9 10 -17 32 -30 27 -7 -3 -13 2 -13 11 0 9 -8 16
-19 16 -11 0 -23 5 -26 10 -3 6 -15 10 -26 10 -11 0 -17 5 -14 10 5 9 -1 12
-21 9 -4 0 -11 5 -15 13 -5 7 -9 9 -10 3z m104 -147 c-2 -5 2 -8 10 -8 8 0 18
-8 21 -17 4 -10 4 -14 0 -11 -11 12 -45 -12 -37 -25 4 -7 -2 -5 -12 3 -17 14
-18 13 -12 -2 4 -12 2 -15 -9 -11 -14 5 -17 13 -17 46 0 9 -4 17 -8 17 -5 0
-9 5 -9 11 0 5 6 7 13 3 9 -6 9 -5 0 8 -7 8 -10 17 -7 21 8 8 73 -26 67 -35z"/>
<path d="M3605 4240 c-3 -5 -1 -10 4 -10 6 0 11 5 11 10 0 6 -2 10 -4 10 -3 0
-8 -4 -11 -10z"/>
<path d="M1649 4112 c6 -11 20 -22 31 -25 26 -7 26 -5 -11 22 -28 21 -30 21
-20 3z"/>
<path d="M1077 4080 c-8 -11 -18 -17 -23 -12 -4 4 -2 -2 6 -12 8 -11 10 -17 3
-13 -6 4 -15 2 -18 -3 -8 -14 23 -50 42 -50 8 0 12 -4 9 -9 -3 -5 1 -12 10
-15 9 -3 12 -11 8 -18 -5 -9 -2 -8 10 1 9 8 16 10 15 5 -3 -14 12 -44 20 -39
4 2 8 -2 8 -10 0 -18 -24 -28 -33 -13 -5 7 -2 8 6 3 9 -5 11 -4 6 3 -4 7 -15
8 -30 2 -12 -4 -29 -4 -36 0 -8 5 -19 5 -26 -1 -9 -7 -16 -5 -24 8 -9 14 -10
14 -7 2 4 -13 -1 -16 -24 -15 -19 0 -28 5 -24 13 3 8 -5 7 -23 -4 -26 -17 -27
-17 -12 1 14 18 14 19 -6 8 -12 -6 -25 -8 -29 -4 -5 4 -5 2 -1 -5 4 -7 -3 -14
-15 -18 -20 -7 -21 -8 -5 -17 14 -8 15 -12 4 -26 -8 -10 -9 -13 -1 -9 7 4 14
-1 18 -14 4 -11 9 -18 12 -15 4 3 19 -8 35 -24 15 -17 32 -30 38 -30 5 0 7 -7
4 -15 -5 -11 -2 -13 10 -9 12 5 15 2 10 -10 -4 -11 -2 -16 7 -14 7 2 13 -2 14
-9 0 -6 4 -15 9 -20 5 -5 6 -3 2 5 -4 6 -3 12 3 12 5 0 13 -9 16 -20 4 -11 11
-17 17 -14 8 5 9 1 4 -12 -4 -10 -4 -16 -1 -12 3 3 21 2 40 -2 20 -5 33 -4 29
1 -3 5 2 16 10 24 14 14 12 49 -3 41 -9 -5 -51 41 -44 48 4 3 -1 6 -11 6 -9 0
-14 5 -11 10 6 9 -8 14 -28 11 -5 -1 -5 8 -2 20 5 16 4 19 -5 14 -8 -5 -11 -4
-7 3 9 14 43 8 39 -8 -1 -6 2 -9 8 -5 6 3 8 11 5 16 -8 12 -3 11 30 -1 14 -5
24 -7 22 -2 -3 4 8 7 23 7 16 1 26 -3 23 -8 -3 -5 4 -6 17 -2 15 5 20 3 16 -3
-3 -6 -2 -14 4 -17 6 -4 9 -1 8 6 -2 6 3 14 11 17 10 3 11 0 5 -9 -6 -12 -5
-12 8 -1 13 10 17 10 21 0 4 -8 6 -7 6 4 1 11 6 15 16 12 10 -4 15 0 15 16 0
12 4 18 10 15 7 -4 10 3 7 19 -2 15 -6 26 -10 26 -4 0 -10 0 -13 0 -4 0 0 -8
7 -17 13 -16 12 -17 -3 -4 -10 7 -18 20 -18 28 0 13 -2 13 -17 2 -9 -8 -14 -9
-11 -4 4 6 0 19 -8 30 -8 10 -14 16 -14 12 0 -4 -11 3 -24 15 -13 13 -21 27
-18 32 3 5 0 6 -6 2 -14 -8 -54 43 -45 58 4 6 -2 4 -12 -4 -11 -9 -16 -10 -11
-2 4 7 2 12 -4 12 -6 0 -8 5 -4 12 5 8 2 9 -10 5 -14 -6 -17 -3 -12 9 6 15 4
15 -11 3 -15 -12 -16 -12 -10 4 9 23 1 22 -16 -3z m-7 -60 c0 -5 -2 -10 -4
-10 -3 0 -8 5 -11 10 -3 6 -1 10 4 10 6 0 11 -4 11 -10z"/>
<path d="M4124 3985 c-4 -8 -10 -15 -16 -15 -5 0 -6 5 -2 12 4 7 3 8 -5 4 -9
-6 -9 -11 -1 -21 8 -10 8 -15 0 -20 -7 -4 -10 -16 -7 -26 4 -13 0 -19 -11 -19
-14 0 -14 -2 -3 -9 16 -10 5 -34 -12 -25 -7 3 -4 -1 6 -9 16 -14 16 -15 -5
-31 -13 -9 -16 -14 -8 -10 13 7 13 5 2 -8 -14 -17 -28 -18 -51 -4 -10 6 -12 5
-7 -2 9 -15 1 -15 -27 0 -19 9 -20 9 -10 -3 9 -11 6 -14 -17 -14 -15 0 -26 3
-23 8 2 4 -1 7 -6 7 -6 0 -11 -4 -11 -9 0 -5 -8 -8 -17 -7 -10 0 -17 -4 -16
-11 2 -7 -4 -10 -15 -7 -16 5 -16 5 0 -9 10 -8 15 -17 11 -20 -3 -4 1 -7 10
-7 9 0 17 -4 17 -8 0 -5 7 -9 15 -9 8 0 15 5 15 11 0 5 6 2 13 -9 11 -14 16
-15 22 -5 6 9 4 11 -5 5 -8 -5 -11 -4 -6 3 8 13 36 5 36 -12 0 -6 5 -3 11 7
10 18 11 18 25 0 13 -17 14 -17 7 2 -3 11 -3 17 1 14 16 -15 16 -59 0 -66 -9
-3 -14 -13 -11 -24 3 -11 1 -22 -4 -25 -5 -3 -9 -10 -9 -15 0 -6 4 -8 9 -5 4
3 7 -6 6 -19 -2 -14 2 -23 8 -22 7 1 11 -5 9 -13 -2 -8 0 -12 4 -8 4 4 13 3
21 -4 10 -8 12 -8 8 4 -3 8 1 20 9 27 8 7 12 19 9 27 -3 8 1 14 8 14 11 0 11
2 -1 10 -12 8 -12 10 4 16 14 5 15 9 4 15 -7 5 -8 9 -2 9 6 0 11 6 12 13 3 33
11 52 21 50 6 -2 11 3 11 10 0 8 21 13 68 14 105 3 110 4 108 20 -2 9 -13 24
-27 35 -13 11 -18 16 -10 12 10 -5 12 -3 7 5 -6 9 -11 9 -21 1 -10 -8 -16 -7
-24 7 -10 17 -10 17 -11 -2 -1 -11 -4 -15 -6 -9 -3 8 -17 9 -42 3 -20 -4 -38
-6 -41 -3 -2 2 1 4 8 4 7 0 9 5 6 10 -4 6 -12 7 -18 3 -7 -3 -4 3 6 14 9 11
17 24 17 29 0 5 -5 2 -10 -6 -7 -10 -10 -11 -10 -2 0 7 7 15 16 19 13 5 13 7
2 14 -9 6 -9 9 -1 9 14 0 8 41 -8 50 -6 4 -11 11 -11 16 0 5 -5 8 -10 6 -6 -2
-8 4 -5 13 4 8 4 15 1 15 -2 0 -7 -7 -10 -15z"/>
<path d="M824 3722 c3 -5 -5 -8 -17 -7 -12 1 -30 -8 -40 -19 -10 -12 -15 -15
-11 -7 5 10 3 12 -5 7 -7 -5 -10 -15 -7 -23 3 -8 2 -12 -2 -10 -9 6 -33 -19
-25 -27 4 -3 1 -6 -6 -6 -7 0 -9 -5 -5 -12 5 -7 2 -9 -9 -5 -12 4 -14 2 -10
-10 4 -10 -3 -23 -18 -34 -13 -10 -18 -19 -11 -19 10 0 8 -5 -4 -17 -16 -17
-16 -18 -1 -21 9 -2 17 -10 17 -18 0 -8 5 -12 10 -9 6 3 10 1 10 -6 0 -7 3
-10 6 -6 4 3 12 1 20 -6 25 -22 39 -33 49 -38 5 -2 9 -7 8 -11 -2 -5 9 -8 23
-8 14 0 23 -4 20 -9 -3 -5 1 -12 10 -15 10 -4 13 -2 8 7 -5 8 -2 8 9 -2 9 -7
14 -18 10 -24 -3 -6 -1 -7 5 -3 7 4 12 2 12 -4 0 -7 6 -10 14 -7 7 3 19 0 25
-6 6 -6 11 -7 11 -3 0 5 7 3 15 -4 8 -7 15 -11 16 -9 0 2 2 13 4 23 2 10 10
23 17 27 12 8 4 13 -16 10 -5 -1 -3 6 5 15 9 12 9 15 2 10 -7 -4 -13 -2 -13 3
0 6 -6 11 -14 11 -7 0 -19 7 -26 15 -10 12 -9 16 4 21 9 3 13 10 10 15 -3 5 0
9 6 9 6 0 9 4 6 9 -4 5 20 9 56 9 50 -1 63 2 68 16 3 10 9 17 13 17 19 -2 21
0 7 9 -13 8 -12 10 3 10 9 0 17 5 17 12 0 6 -3 9 -6 5 -4 -3 -14 2 -23 11 -9
10 -13 13 -9 7 9 -13 -88 -13 -100 0 -4 5 2 5 12 1 20 -7 20 -7 0 15 -12 14
-13 19 -4 14 8 -4 5 2 -7 14 -27 26 -30 39 -5 21 9 -7 5 -1 -10 13 -15 14 -24
28 -20 32 4 4 3 6 -3 5 -22 -5 -36 1 -29 11 5 8 1 8 -14 0 -14 -7 -23 -8 -27
-1 -3 5 -13 10 -21 10 -8 0 -13 -4 -10 -8z m41 -95 c7 -9 15 -14 18 -10 4 3 7
0 8 -8 0 -8 2 -22 4 -31 2 -10 0 -17 -3 -17 -20 3 -25 -2 -12 -11 13 -8 13
-10 -1 -10 -9 0 -20 -7 -23 -16 -3 -8 -11 -12 -17 -8 -8 5 -9 3 -5 -5 6 -9 13
-8 29 6 l22 18 -19 -22 c-23 -28 -42 -29 -55 -4 -6 10 -18 21 -26 25 -11 4
-14 2 -9 -7 6 -8 3 -8 -8 1 -21 17 -19 50 4 58 10 3 15 10 12 16 -4 6 -10 5
-16 -3 -8 -11 -9 -11 -5 1 2 8 10 15 18 15 8 1 13 6 12 13 -4 16 10 15 26 0
10 -11 11 -10 6 4 -9 22 23 18 40 -5z"/>
<path d="M4368 3666 c-10 -7 -14 -17 -10 -22 4 -4 0 -3 -10 4 -14 11 -19 9
-32 -10 -9 -13 -21 -24 -26 -24 -6 -1 -15 -2 -21 -3 -5 0 -7 -5 -4 -11 3 -5 1
-10 -6 -10 -7 0 -21 -8 -32 -17 -12 -10 -17 -12 -12 -4 10 18 -56 -29 -73 -51
-7 -10 -19 -18 -25 -18 -7 0 -6 4 3 11 13 9 13 10 0 6 -9 -2 -15 -15 -14 -30
0 -20 -3 -24 -13 -15 -19 16 -16 4 7 -22 12 -13 26 -20 35 -16 9 3 13 2 10 -4
-3 -6 -2 -10 3 -10 6 0 12 7 16 15 3 8 12 15 20 15 8 0 19 8 24 17 10 17 31
25 67 24 16 0 17 2 5 9 -14 9 -7 14 13 11 4 0 7 4 7 10 0 6 7 8 16 5 8 -3 12
-2 9 4 -3 6 -1 10 5 10 6 0 8 4 5 10 -3 5 0 7 8 4 8 -3 20 2 27 11 7 8 18 15
24 15 7 0 17 5 24 12 9 9 8 16 -6 32 -10 11 -11 16 -3 11 10 -5 12 -4 7 3 -4
7 -14 12 -23 12 -9 0 -13 6 -9 15 7 18 6 18 -16 1z m47 -66 c-3 -5 -11 -10
-16 -10 -6 0 -7 5 -4 10 3 6 11 10 16 10 6 0 7 -4 4 -10z"/>
<path d="M4085 3550 c-3 -6 1 -7 9 -4 18 7 21 14 7 14 -6 0 -13 -4 -16 -10z"/>
<path d="M581 3412 c3 -21 -2 -32 -13 -26 -7 4 -8 3 -4 -5 4 -6 2 -19 -6 -28
-11 -14 -11 -16 2 -9 9 4 8 2 -2 -7 -10 -8 -15 -17 -11 -20 3 -4 2 -7 -3 -7
-5 0 -10 -10 -11 -22 -1 -11 -6 -24 -10 -27 -5 -3 -9 -14 -10 -23 -1 -35 -3
-39 -13 -33 -5 3 -10 1 -10 -4 0 -6 6 -11 13 -12 6 0 3 -4 -8 -9 -16 -7 -17
-9 -3 -9 9 -1 18 -6 20 -11 2 -6 13 -12 26 -13 12 0 22 -5 22 -9 0 -4 7 -4 17
-1 12 5 14 3 8 -7 -6 -10 -4 -12 8 -7 12 4 17 1 17 -11 0 -15 2 -15 10 -2 5 8
10 10 10 4 0 -7 7 -15 16 -18 8 -3 13 -2 10 3 -4 5 5 4 18 -2 13 -7 22 -16 19
-21 -4 -5 1 -7 9 -3 9 3 21 0 28 -6 10 -9 11 -9 5 1 -6 11 -3 11 14 0 12 -7
21 -16 21 -20 0 -5 5 -8 11 -8 5 0 8 4 5 9 -3 4 6 6 19 3 20 -3 24 -1 19 11
-3 8 0 18 7 23 8 5 10 3 4 -6 -5 -9 -4 -11 4 -6 9 6 9 11 0 22 -9 11 -8 14 4
14 10 0 13 6 10 20 -3 12 0 20 6 20 7 0 9 5 6 10 -3 6 -1 10 5 10 6 0 9 4 6 9
-3 5 1 14 9 21 7 6 12 17 9 25 -3 7 -1 16 5 20 6 3 11 11 11 16 0 6 -6 7 -12
3 -9 -5 -9 -3 1 9 7 9 18 14 25 10 6 -4 5 1 -3 10 -7 9 -19 17 -25 17 -6 0 -4
-5 4 -11 12 -9 12 -10 -3 -5 -10 3 -21 6 -24 6 -3 0 0 8 7 18 7 9 1 5 -13 -10
-14 -15 -28 -25 -31 -22 -3 2 -4 1 -1 -3 3 -3 0 -12 -5 -19 -6 -6 -10 -16 -9
-20 4 -22 -2 -35 -13 -28 -6 4 -8 3 -5 -3 4 -6 0 -16 -8 -23 -7 -6 -11 -18 -8
-26 4 -10 -2 -14 -21 -14 -14 0 -26 6 -26 13 0 8 -4 7 -10 -3 -8 -13 -10 -12
-11 5 -1 11 -1 23 0 28 4 24 7 33 19 45 7 8 10 18 7 23 -4 5 2 9 12 9 14 0 15
2 4 9 -11 7 -11 9 0 14 12 5 12 6 0 6 -11 1 -11 4 0 18 10 11 10 14 2 9 -8 -4
-13 -2 -13 4 0 6 -4 9 -9 6 -5 -4 -12 0 -14 6 -4 10 -6 10 -6 1 -1 -7 -8 -13
-16 -13 -9 0 -12 -6 -8 -17 4 -9 2 -14 -3 -11 -5 4 -10 -5 -11 -18 -4 -45 -6
-53 -15 -48 -7 5 -12 -9 -10 -27 1 -7 -59 -2 -67 6 -13 14 -5 48 16 65 14 11
19 21 13 25 -5 3 -10 1 -10 -6 0 -7 -3 -9 -7 -6 -3 4 2 15 11 26 9 10 18 28
19 40 1 11 6 21 11 21 12 0 -22 24 -46 33 -10 3 -17 3 -17 -1z"/>
<path d="M4499 3343 c-12 -14 -12 -16 0 -8 9 5 12 4 7 -3 -3 -6 -18 -9 -31 -6
-18 3 -27 -1 -32 -13 -6 -15 -7 -15 -14 3 -6 15 -8 16 -8 3 -1 -9 -8 -20 -17
-23 -10 -4 -13 -2 -8 7 6 8 3 8 -9 -1 -9 -8 -22 -10 -28 -6 -8 4 -9 3 -5 -4 7
-12 -4 -16 -35 -13 -9 1 -19 -5 -23 -14 -4 -11 -12 -14 -27 -10 -15 5 -19 4
-15 -4 4 -6 2 -11 -4 -11 -6 0 -9 -4 -5 -9 3 -5 1 -12 -5 -16 -14 -9 -12 -25
3 -25 8 0 14 -7 14 -15 0 -8 -5 -15 -11 -15 -6 0 -4 -4 4 -9 8 -6 17 -8 20 -6
3 2 7 -6 7 -18 2 -17 0 -19 -7 -7 -6 9 -10 10 -10 3 0 -6 5 -15 10 -18 6 -4 7
-11 4 -17 -4 -6 -3 -8 2 -5 6 3 16 -3 23 -15 9 -14 9 -18 1 -13 -9 6 -9 2 -1
-14 7 -11 17 -21 22 -21 6 0 8 -7 5 -16 -6 -15 -4 -15 11 -3 9 8 14 9 11 4 -4
-6 1 -19 9 -30 15 -19 15 -19 9 -1 -7 19 -6 19 12 3 10 -9 22 -14 25 -10 4 3
7 1 7 -7 0 -10 3 -10 15 0 12 10 16 9 21 -4 6 -15 8 -15 19 1 8 10 17 15 21
10 4 -4 2 -7 -4 -7 -7 0 -12 -5 -12 -11 0 -7 10 -5 26 6 14 9 32 14 40 11 7
-3 13 -2 11 2 -1 4 1 8 6 10 17 5 52 48 49 61 -2 8 2 12 11 8 7 -3 14 1 14 9
0 7 -5 10 -11 7 -7 -5 -7 -2 0 8 7 8 14 33 16 57 3 32 0 42 -12 43 -10 0 -11
2 -2 6 6 2 12 9 12 14 0 6 -6 7 -12 3 -8 -5 -7 0 2 11 8 10 10 16 5 13 -6 -4
-15 5 -22 18 -6 13 -7 22 -2 18 5 -3 9 0 9 5 0 6 -6 11 -14 11 -15 0 -16 16
-3 37 6 9 3 11 -9 6 -10 -3 -15 -2 -12 3 3 5 -4 17 -14 27 -16 15 -19 15 -24
2 -3 -8 -10 -12 -15 -9 -5 3 -7 10 -4 15 10 15 -2 10 -16 -8z m31 -109 c0 -8
5 -14 10 -14 6 0 10 -8 10 -18 0 -10 3 -22 7 -25 10 -10 10 -56 0 -50 -5 3 -7
-1 -6 -8 5 -26 -11 -58 -27 -52 -8 3 -14 -1 -14 -10 0 -9 -5 -19 -12 -23 -6
-4 -8 -3 -5 3 4 6 0 14 -9 17 -8 3 -12 2 -9 -4 3 -6 0 -10 -7 -11 -7 0 -21 -2
-30 -4 -9 -2 -26 6 -37 16 -11 10 -26 19 -33 19 -9 0 -9 3 2 10 13 8 12 10 -2
10 -11 0 -18 8 -18 19 0 11 -5 23 -10 26 -8 5 -7 12 2 23 9 10 9 13 1 9 -8 -5
-11 -1 -10 12 0 11 5 17 10 14 5 -3 13 1 18 8 7 12 9 11 9 -1 0 -12 2 -12 9
-2 7 12 25 18 54 21 5 1 5 5 2 11 -4 7 2 7 19 0 17 -6 27 -6 32 2 4 6 3 8 -4
4 -6 -3 -14 -1 -18 5 -4 7 -3 9 2 6 6 -3 16 -2 24 3 17 11 40 2 40 -16z"/>
<path d="M665 3269 c-4 -6 -5 -12 -2 -15 2 -3 7 2 10 11 7 17 1 20 -8 4z"/>
<path d="M2335 3170 c-11 -4 -26 -5 -34 -2 -10 4 -12 1 -6 -8 6 -10 3 -12 -13
-8 -12 4 -20 2 -16 -3 3 -5 0 -9 -5 -9 -6 0 -10 -3 -8 -7 1 -5 -8 -18 -21 -31
-18 -18 -20 -26 -12 -42 7 -12 7 -21 0 -25 -5 -3 -10 -11 -10 -16 0 -6 5 -7
11 -3 8 5 8 1 0 -14 -6 -11 -11 -23 -11 -27 0 -3 5 -3 11 1 7 4 6 -2 -1 -17
-10 -18 -10 -24 -1 -27 9 -3 9 -7 0 -18 -9 -11 -9 -14 0 -14 7 0 9 -5 6 -11
-9 -14 -13 -89 -5 -89 3 0 6 -9 6 -20 0 -11 -5 -20 -11 -20 -5 0 -3 -5 5 -10
13 -9 13 -10 0 -10 -13 0 -13 -1 0 -11 12 -8 12 -12 2 -16 -10 -4 -10 -8 -2
-19 14 -16 4 -37 -13 -28 -7 3 -3 -2 7 -10 11 -9 15 -16 9 -16 -7 0 -18 7 -26
15 -8 8 -18 11 -22 7 -5 -4 -5 1 -2 10 4 11 2 17 -6 15 -7 -1 -11 3 -10 10 2
7 -4 10 -12 7 -14 -6 -20 7 -15 31 1 6 -2 7 -5 3 -11 -10 -47 11 -39 23 3 6 0
9 -7 8 -20 -3 -50 12 -43 22 3 5 -2 6 -10 3 -10 -4 -16 -1 -16 10 0 10 -6 13
-15 10 -8 -4 -15 -1 -15 5 0 6 -6 8 -14 5 -8 -3 -17 -1 -21 5 -3 6 -15 11 -26
11 -12 0 -17 4 -13 11 4 8 0 9 -15 4 -12 -4 -21 -2 -21 4 0 6 -13 11 -30 11
-17 0 -30 5 -30 13 0 8 -3 7 -10 -3 -8 -13 -11 -13 -22 -1 -11 11 -11 13 1 6
10 -6 12 -4 7 4 -6 9 -11 9 -22 0 -11 -9 -14 -8 -15 7 0 17 -1 17 -7 2 -5 -12
-12 -14 -21 -9 -7 5 -27 5 -43 1 -15 -5 -26 -5 -24 -1 3 4 -11 7 -30 7 -19 0
-34 -4 -34 -9 0 -4 5 -5 12 -1 7 4 8 3 4 -4 -4 -7 -15 -8 -29 -3 -16 6 -25 4
-34 -8 -12 -14 -12 -14 -6 4 5 16 4 18 -8 9 -8 -6 -25 -15 -39 -19 -23 -7 -24
-7 -10 11 14 19 14 19 -7 0 -13 -10 -20 -24 -16 -30 4 -6 0 -5 -9 2 -13 10
-17 10 -22 -5 -6 -15 -8 -15 -16 -3 -7 12 -13 11 -34 -9 -14 -13 -32 -21 -40
-18 -10 4 -13 1 -9 -9 5 -13 -13 -20 -40 -15 -5 1 -6 -3 -2 -9 3 -5 1 -10 -5
-10 -6 0 -8 -4 -5 -10 3 -6 -1 -7 -9 -4 -10 4 -16 1 -16 -7 0 -7 -3 -9 -7 -6
-3 4 -13 -2 -20 -13 -8 -11 -20 -17 -26 -14 -7 4 -9 4 -6 0 8 -9 -42 -62 -54
-58 -5 1 -6 -2 -3 -7 3 -5 -1 -12 -10 -15 -14 -5 -14 -9 -3 -23 12 -15 12 -16
-3 -10 -16 6 -23 -3 -19 -25 0 -4 -7 -4 -16 -1 -11 4 -14 3 -9 -6 5 -7 0 -18
-10 -27 -11 -9 -13 -13 -4 -9 13 6 13 5 0 -7 -8 -7 -15 -20 -15 -28 0 -8 -5
-14 -12 -13 -7 2 -10 -3 -7 -11 3 -8 1 -17 -5 -21 -6 -3 -11 -19 -11 -36 0
-16 -4 -29 -10 -29 -5 0 -8 -13 -6 -30 2 -18 -1 -27 -7 -23 -6 4 -7 1 -3 -6 5
-7 15 -10 23 -7 8 3 11 1 8 -4 -3 -5 4 -10 17 -9 13 0 35 -2 51 -4 16 -2 27 0
27 7 0 6 5 4 10 -4 8 -13 10 -12 10 3 0 17 1 17 17 1 11 -11 18 -13 21 -5 2 6
8 11 13 11 6 0 8 -3 6 -7 -3 -5 37 -8 89 -8 56 0 94 4 94 10 0 6 5 3 10 -5 7
-11 10 -11 10 -2 0 7 4 10 10 7 16 -10 80 -13 74 -4 -3 5 6 5 19 0 17 -7 28
-6 36 2 8 8 14 8 19 2 8 -12 73 -14 65 -3 -2 5 1 8 6 8 6 0 11 -3 11 -7 0 -5
14 -8 30 -8 17 0 30 5 30 10 0 6 5 3 10 -5 7 -11 10 -11 10 -2 0 8 5 10 12 6
19 -12 288 -11 288 1 0 6 5 3 10 -5 8 -13 10 -12 10 3 0 17 1 17 17 1 11 -11
18 -13 21 -5 2 6 9 8 15 4 17 -10 47 -11 47 -1 0 4 5 8 11 8 5 0 7 -6 3 -12
-6 -10 -4 -10 8 0 13 10 17 10 21 0 4 -10 6 -10 6 -1 1 9 7 8 20 -4 11 -9 17
-23 13 -31 -3 -10 -1 -13 6 -8 9 5 9 1 2 -18 -7 -19 -6 -26 3 -26 6 0 3 -7 -7
-15 -17 -13 -17 -15 -3 -15 14 0 15 -4 6 -27 -7 -20 -7 -29 1 -31 8 -3 8 -8
-1 -18 -6 -8 -7 -14 -2 -14 5 0 9 -9 9 -19 0 -11 -5 -17 -11 -13 -5 3 -4 -1 2
-9 10 -12 10 -18 0 -28 -9 -10 -9 -11 4 -6 10 4 20 1 25 -6 4 -8 3 -10 -4 -5
-19 12 -14 -1 13 -30 14 -15 25 -21 25 -14 0 7 7 5 18 -7 9 -10 14 -14 10 -8
-8 13 49 12 60 -1 4 -4 -1 -4 -10 -1 -10 3 -20 2 -22 -2 -3 -5 4 -8 15 -7 11
0 24 8 29 16 7 10 10 11 10 3 0 -7 5 -13 11 -13 5 0 8 4 4 9 -3 5 4 12 15 16
11 4 18 11 15 16 -4 5 1 9 9 9 10 0 13 7 11 21 -3 16 0 19 13 14 14 -5 15 -4
5 6 -14 14 -18 33 -5 25 5 -3 9 1 9 9 0 8 -4 12 -9 9 -4 -3 -4 6 1 19 6 14 8
27 5 30 -9 8 -13 48 -5 42 16 -9 20 23 5 36 -10 8 -12 15 -4 23 12 12 14 29 2
22 -10 -6 -9 65 1 81 4 7 4 14 -1 17 -4 2 -5 34 -2 70 3 37 1 74 -4 83 -7 13
-5 15 10 10 18 -7 18 -6 0 8 -11 8 -14 15 -7 15 7 0 9 5 5 12 -10 16 -11 58
-2 58 4 0 8 5 8 11 0 5 -4 8 -9 5 -5 -4 -8 2 -6 11 9 44 12 103 6 99 -4 -3 -7
4 -7 15 0 10 4 19 7 19 4 0 4 12 0 28 -5 15 -7 36 -5 47 7 47 7 133 -1 145 -6
10 -4 12 8 7 11 -4 14 -2 10 8 -3 8 -8 13 -12 11 -3 -2 -6 9 -7 25 -1 15 3 26
7 23 5 -3 6 2 3 10 -3 9 -10 16 -16 16 -5 0 -7 4 -4 9 3 5 -1 11 -9 15 -8 3
-15 12 -15 19 0 8 -8 21 -17 28 -16 13 -17 12 -4 -3 17 -22 8 -23 -13 -2 -11
11 -16 12 -16 3 0 -9 -4 -8 -12 3 -9 11 -20 13 -33 8z"/>
<path d="M2670 3153 c-39 -27 -52 -40 -30 -29 8 4 4 -2 -10 -14 -14 -12 -18
-18 -10 -14 12 6 13 5 4 -7 -16 -21 -23 -55 -13 -70 4 -7 3 -22 -3 -32 -7 -14
-7 -17 1 -13 6 4 9 1 7 -6 -12 -37 -16 -69 -8 -64 4 2 7 -10 5 -27 -4 -39 -6
-80 -3 -87 10 -27 7 -41 -7 -36 -13 5 -14 4 -3 -8 18 -23 19 -76 1 -86 -9 -5
-11 -10 -5 -10 15 0 25 -38 12 -46 -6 -4 -5 -10 3 -15 11 -7 11 -9 1 -9 -7 0
-10 -4 -7 -10 3 -5 0 -10 -7 -10 -11 0 -11 -2 0 -9 10 -6 12 -24 8 -65 -4 -40
-2 -56 7 -57 7 0 3 -4 -8 -9 -11 -5 -15 -9 -10 -9 15 -1 17 -51 2 -51 -8 0 -8
-3 2 -9 8 -5 11 -16 8 -25 -4 -9 -1 -16 6 -16 8 0 6 -4 -3 -10 -8 -5 -11 -10
-7 -10 4 0 2 -10 -4 -22 -11 -20 -10 -21 2 -11 12 10 15 7 14 -17 0 -16 -4
-32 -8 -36 -4 -4 -2 -13 4 -20 7 -8 7 -14 -1 -19 -8 -5 -7 -11 2 -23 11 -13
11 -15 -4 -10 -17 7 -19 -7 -5 -29 5 -7 5 -17 2 -23 -3 -5 0 -10 7 -10 9 0 9
-3 -2 -10 -11 -7 -11 -10 -2 -10 7 0 11 -4 7 -10 -8 -13 17 -50 33 -50 8 0 12
-6 9 -13 -3 -8 1 -14 9 -14 7 0 11 4 8 9 -3 4 2 5 10 2 9 -3 13 -10 10 -15 -8
-13 10 -11 25 4 10 8 12 8 7 0 -3 -6 -2 -14 4 -18 5 -3 10 -1 10 6 0 6 8 9 20
6 11 -3 18 -1 15 3 -3 5 4 12 16 15 29 9 56 38 51 55 -3 7 0 10 6 6 5 -3 13 1
16 10 5 12 2 15 -11 10 -15 -6 -15 -4 2 14 12 13 14 20 5 20 -10 0 -10 3 -1
14 10 11 8 17 -6 26 -14 9 -14 10 -2 6 13 -3 16 2 15 20 0 13 -4 24 -7 24 -3
0 -6 7 -6 15 0 8 5 15 10 15 5 0 3 8 -4 17 -10 11 -10 14 -1 9 6 -4 12 -2 12
3 0 6 -4 11 -10 11 -5 0 -10 5 -10 11 0 5 5 7 12 3 7 -4 8 -3 4 5 -4 6 -9 31
-10 56 -3 56 22 67 54 22 13 -16 17 -26 10 -22 -9 6 -11 4 -6 -4 5 -7 14 -10
22 -7 8 3 14 -1 14 -9 0 -8 5 -15 11 -15 5 0 7 -5 3 -12 -4 -7 -3 -8 5 -4 6 4
14 0 17 -8 3 -9 11 -16 18 -16 6 0 19 -9 29 -20 10 -12 22 -18 27 -15 9 6 14
-8 11 -27 0 -4 7 -4 16 -1 12 5 14 3 8 -8 -4 -8 -5 -11 0 -7 4 4 15 2 23 -5
13 -10 15 -9 8 3 -4 8 1 5 13 -8 13 -16 22 -19 27 -11 5 9 11 7 20 -6 8 -10
17 -16 20 -12 4 4 13 2 20 -4 8 -6 21 -9 29 -5 9 3 15 0 15 -9 0 -9 9 -12 30
-10 17 2 30 0 30 -5 0 -4 20 -7 45 -5 25 1 42 -1 39 -6 -3 -5 1 -7 8 -5 41 13
79 15 72 4 -5 -7 -3 -8 7 -3 12 8 58 15 102 16 9 0 15 4 13 8 -3 5 6 6 19 3
16 -3 25 0 25 8 0 9 4 9 17 -1 9 -8 14 -9 10 -3 -4 7 3 14 18 18 14 4 23 11
20 16 -3 5 4 7 15 5 11 -2 20 1 20 7 0 5 7 7 16 4 10 -4 13 -2 8 6 -5 8 -2 9
9 5 10 -3 17 -2 17 3 0 5 14 17 30 25 17 9 28 20 25 25 -4 6 1 7 11 3 13 -5
15 -3 9 7 -6 10 -4 12 9 7 10 -4 15 -3 11 3 -3 5 4 14 15 20 11 6 20 18 20 28
0 13 2 14 9 3 6 -9 11 -10 15 -2 4 6 4 11 0 11 -3 0 2 8 13 18 10 9 12 13 3 7
-10 -6 -8 -2 4 13 11 12 25 22 32 22 8 0 11 6 8 15 -4 8 1 17 10 21 9 3 16 15
16 26 0 12 4 17 12 12 7 -5 9 -2 5 9 -3 9 1 18 11 22 14 5 14 7 2 15 -13 8
-12 10 3 10 10 0 16 4 12 10 -6 10 13 50 30 62 6 5 5 8 -4 8 -11 0 -11 3 -1
15 7 8 10 22 6 30 -3 9 -2 14 3 11 5 -3 12 2 15 11 4 10 4 14 0 11 -4 -4 -16
-3 -27 3 -15 9 -18 8 -11 -3 4 -7 -3 -4 -16 7 -13 11 -21 15 -17 9 8 -13 -211
-13 -232 0 -9 6 -12 5 -8 -1 4 -5 -17 -9 -53 -9 -32 0 -57 3 -55 6 2 4 -2 7
-10 7 -8 0 -12 -4 -9 -8 6 -10 -87 -6 -105 5 -9 6 -12 5 -8 -1 8 -12 -142 -11
-162 1 -10 6 -12 5 -7 -2 9 -15 -43 -13 -63 2 -11 8 -13 8 -8 0 4 -7 -14 -10
-53 -10 -32 0 -57 3 -55 6 2 4 -2 7 -10 7 -8 0 -12 -4 -9 -8 6 -10 -87 -6
-105 5 -9 6 -12 5 -8 -1 8 -12 -142 -11 -162 2 -10 5 -12 4 -7 -3 5 -8 -1 -12
-14 -12 -13 0 -19 4 -14 12 5 7 3 8 -7 2 -24 -14 -35 -13 -48 8 -7 12 -8 17
-2 13 6 -3 11 -1 11 4 0 6 -6 11 -12 11 -8 0 -9 3 -3 8 13 9 17 52 5 52 -6 0
-10 5 -10 11 0 5 4 8 8 5 4 -2 8 4 8 14 0 10 -3 17 -6 15 -4 -2 -7 2 -7 10 0
8 4 12 9 9 4 -3 8 0 8 5 0 6 -4 11 -10 11 -5 0 -7 7 -3 16 3 9 0 20 -8 26 -11
8 -10 9 4 4 18 -6 24 9 8 19 -6 3 -8 15 -5 28 3 12 7 29 8 37 2 8 -1 20 -6 27
-6 7 -5 19 1 32 8 13 8 22 1 26 -6 4 -8 10 -5 15 3 4 -2 11 -11 14 -14 5 -14
9 -3 23 10 11 10 14 2 9 -8 -4 -22 2 -36 16 -13 13 -29 23 -37 22 -8 0 -21 4
-27 9 -9 6 -13 5 -13 -3 0 -8 -4 -9 -12 -3 -9 7 -24 3 -48 -14z"/>
<path d="M447 3072 c-12 -26 -12 -31 8 -60 12 -18 25 -29 28 -25 4 3 7 1 7 -6
0 -7 5 -9 10 -6 6 3 10 -1 10 -9 0 -8 5 -18 12 -22 7 -5 8 -3 3 7 -7 11 -6 12
7 2 8 -7 19 -9 23 -5 5 4 5 1 1 -5 -4 -7 -2 -13 4 -13 6 0 8 -6 4 -12 -4 -7
-4 -10 1 -6 4 4 15 2 23 -5 13 -10 14 -9 7 3 -4 8 1 6 12 -5 28 -29 27 -55 -3
-55 -13 0 -24 -6 -24 -12 0 -8 -3 -9 -8 -3 -9 13 -35 18 -27 6 3 -6 -7 -9 -25
-6 -17 2 -28 0 -24 -6 3 -5 10 -6 16 -3 7 4 8 2 4 -4 -5 -9 -13 -9 -26 -2 -13
7 -21 7 -25 0 -3 -6 -17 -8 -31 -6 -13 3 -24 0 -24 -5 0 -6 -4 -7 -10 -4 -5 3
-10 1 -10 -4 0 -6 5 -11 12 -11 6 0 4 -6 -6 -13 -23 -17 -9 -52 22 -53 12 0
22 3 22 7 0 4 16 6 36 5 20 -1 38 2 41 7 3 4 11 3 19 -4 12 -10 13 -9 8 5 -5
12 -2 15 12 9 11 -4 15 -3 10 5 -4 7 2 9 20 6 17 -3 23 -1 19 7 -6 8 -2 8 14
0 14 -8 21 -8 21 -1 0 7 7 7 23 -1 19 -11 20 -10 10 3 -11 12 -7 14 22 12 19
-2 35 1 35 6 0 6 7 10 16 10 9 0 12 5 8 12 -5 8 -2 9 11 4 14 -5 16 -4 7 7 -9
10 -8 17 1 27 8 8 8 11 1 7 -7 -4 -14 0 -17 8 -4 10 -1 12 10 8 11 -4 14 -2 9
5 -4 7 -13 12 -21 12 -7 0 -27 13 -44 29 -18 17 -34 30 -36 30 -3 1 -10 1 -16
1 -5 0 -7 5 -4 10 3 6 -1 10 -9 10 -9 0 -16 5 -16 10 0 6 -9 10 -20 10 -11 0
-25 9 -32 20 -7 11 -19 20 -26 20 -7 0 -15 7 -18 15 -4 8 -9 13 -13 10 -4 -2
-13 4 -21 15 -7 10 -20 16 -28 12 -10 -3 -13 -1 -8 6 4 7 5 12 2 12 -2 0 -11
-13 -19 -28z m23 -11 c0 -5 -7 -12 -16 -15 -14 -5 -15 -4 -4 9 14 17 20 19 20
6z"/>
<path d="M4691 2913 c-6 -10 -11 -13 -11 -8 0 18 -50 17 -50 -1 0 -8 -5 -12
-10 -9 -6 4 -8 12 -4 18 3 7 -1 4 -8 -5 -13 -15 -15 -15 -26 0 -7 9 -10 12 -7
6 2 -7 -4 -14 -15 -17 -11 -3 -20 0 -20 6 0 9 -2 9 -8 1 -9 -15 -80 -25 -88
-13 -3 5 -17 0 -32 -11 -25 -20 -27 -21 -41 -3 -11 14 -13 15 -8 2 3 -9 1 -21
-4 -26 -10 -10 -1 -46 10 -39 4 3 7 -4 7 -14 0 -14 -3 -16 -13 -8 -10 8 -12 7
-7 -6 3 -9 10 -16 14 -16 10 0 8 -20 -3 -38 -5 -7 -2 -15 8 -18 13 -6 14 -8 3
-15 -10 -7 -10 -9 0 -9 10 0 10 -5 1 -21 -6 -12 -7 -19 -2 -16 5 3 15 -4 23
-16 12 -20 12 -21 -4 -8 -14 12 -16 12 -10 -2 3 -8 12 -18 20 -21 9 -3 12 -12
9 -18 -4 -7 2 -4 12 8 10 11 25 23 33 27 8 3 10 6 3 6 -7 1 -10 11 -7 28 4 19
0 32 -13 42 -15 11 -15 13 -2 8 13 -4 15 -1 12 14 -3 10 -9 19 -14 19 -14 0
-6 49 9 55 8 3 10 0 6 -8 -4 -6 2 -4 13 6 24 21 37 22 30 3 -4 -10 1 -13 16
-10 12 2 16 2 10 -2 -7 -3 -13 -10 -13 -15 0 -6 6 -7 13 -3 7 5 6 0 -3 -11 -8
-10 -10 -16 -4 -12 7 4 11 -7 12 -31 1 -20 6 -38 12 -40 7 -3 6 -9 -2 -20 -12
-13 -10 -14 10 -3 12 6 22 9 22 6 0 -2 9 3 19 12 17 14 18 19 7 37 -14 23 -15
35 -3 54 5 7 4 12 -3 12 -6 0 -8 5 -5 10 3 6 2 10 -4 10 -6 0 -8 7 -5 15 5 13
9 13 22 3 12 -10 14 -10 8 0 -4 6 -2 12 3 12 19 0 26 -5 23 -14 -2 -5 3 -4 12
3 19 16 30 -2 16 -29 -8 -15 -8 -20 1 -20 8 0 8 -4 -1 -15 -7 -8 -8 -15 -3
-15 15 0 34 -48 23 -55 -6 -4 -10 -12 -10 -18 0 -8 3 -8 9 1 6 11 10 10 15 -3
5 -13 9 -15 20 -6 7 6 17 7 22 3 4 -4 2 2 -6 12 -8 11 -10 17 -4 13 7 -4 14 0
18 8 3 8 1 17 -3 20 -5 3 -8 18 -7 35 1 20 -3 30 -12 30 -7 0 -10 5 -7 10 4 6
12 7 18 3 8 -5 8 -2 0 9 -7 8 -10 18 -6 21 3 4 1 7 -5 7 -7 0 -12 5 -12 11 0
5 4 7 10 4 6 -3 7 1 4 9 -3 9 -9 14 -13 12 -3 -3 -6 13 -6 35 1 44 0 46 -14
22z m-251 -33 c0 -5 -5 -10 -11 -10 -5 0 -7 5 -4 10 3 6 8 10 11 10 2 0 4 -4
4 -10z"/>
<path d="M4660 2700 c6 -11 13 -20 16 -20 2 0 0 9 -6 20 -6 11 -13 20 -16 20
-2 0 0 -9 6 -20z"/>
<path d="M486 2648 c-5 -19 -8 -20 -15 -8 -9 12 -11 12 -17 -3 -3 -9 -16 -17
-28 -18 -11 0 -15 -3 -8 -6 9 -3 6 -11 -11 -27 -13 -12 -23 -30 -21 -39 1 -9
-3 -20 -8 -24 -7 -4 -8 -1 -3 7 5 8 4 11 -3 6 -7 -4 -8 -17 -2 -36 6 -22 5
-28 -2 -24 -7 5 -9 1 -5 -9 4 -10 1 -17 -6 -17 -8 0 -8 -3 2 -9 8 -5 11 -18 7
-32 -3 -13 -3 -18 0 -11 9 20 23 14 17 -8 -4 -15 0 -20 13 -21 11 0 14 -3 7
-6 -20 -7 -15 -23 5 -16 15 6 16 5 2 -12 -8 -10 -10 -16 -3 -12 7 4 16 0 22
-10 6 -10 11 -14 11 -10 0 5 15 0 33 -10 18 -11 43 -18 55 -17 16 3 20 0 15
-14 -5 -14 -3 -13 11 3 10 11 14 14 11 6 -5 -9 0 -8 18 3 20 13 26 14 30 4 4
-11 6 -11 6 0 1 7 6 10 11 7 6 -4 9 -1 8 7 -2 8 6 13 19 12 13 -1 19 4 17 11
-3 6 5 17 18 24 13 6 15 9 6 7 -11 -3 -15 0 -12 9 3 8 11 12 18 9 9 -3 12 5
11 25 -1 17 2 28 8 24 5 -3 8 11 5 35 -2 22 0 38 4 36 3 -2 10 0 13 6 4 6 3
10 -2 9 -20 -3 -24 2 -13 17 11 12 11 15 0 12 -8 -2 -15 3 -16 10 -1 6 -2 17
-3 23 0 5 -6 7 -13 3 -7 -4 -8 -3 -4 5 4 6 -1 19 -11 29 -11 9 -12 13 -4 7 11
-7 13 -7 7 2 -4 7 -16 18 -28 24 -15 8 -19 8 -13 -1 5 -7 0 -7 -14 2 -12 7
-19 19 -16 27 4 11 3 12 -10 1 -12 -10 -15 -10 -15 0 0 10 -3 10 -15 0 -12
-10 -15 -10 -15 0 0 9 -4 9 -17 -1 -11 -9 -14 -10 -9 -2 5 9 2 11 -8 7 -9 -3
-13 -11 -10 -18 3 -6 -1 -3 -9 7 -14 16 -15 16 -21 -5z m64 -73 c0 -8 5 -15
11 -15 5 0 7 4 4 10 -3 6 1 7 9 4 9 -3 13 -11 9 -18 -4 -7 -2 -7 7 1 15 14 27
4 49 -39 8 -15 19 -24 25 -21 6 4 5 -1 -3 -10 -7 -9 -10 -17 -5 -17 4 0 3 -5
-4 -12 -8 -8 -9 -15 -1 -25 9 -10 7 -13 -7 -13 -12 0 -15 -3 -7 -8 19 -12 -27
-49 -59 -48 -16 1 -28 -2 -28 -6 0 -4 -10 -6 -22 -4 -13 2 -22 9 -21 15 2 6
-4 8 -14 4 -12 -5 -14 -3 -8 7 6 10 4 12 -8 7 -11 -4 -17 -1 -17 8 0 8 -6 15
-12 15 -9 0 -8 4 2 10 13 8 12 10 -4 10 -15 0 -16 3 -6 15 9 10 9 15 1 15 -6
0 -9 10 -7 23 2 12 8 21 14 20 5 -1 8 7 5 18 -4 13 -1 19 8 17 8 -2 13 3 11
10 -1 7 5 12 15 10 10 -2 17 2 16 8 -1 8 6 10 19 6 14 -3 19 -1 14 6 -4 7 -2
12 3 12 6 0 11 -7 11 -15z"/>
<path d="M4410 2442 c-8 -9 -14 -23 -14 -32 0 -18 39 -61 48 -52 3 3 6 -2 6
-11 0 -9 5 -17 10 -17 14 0 13 -37 -1 -46 -8 -5 -8 -9 1 -14 8 -5 9 -13 4 -21
-5 -8 -9 -25 -10 -37 -1 -26 -19 -42 -45 -42 -9 0 -21 -6 -26 -12 -15 -20 -22
-57 -12 -64 5 -3 7 -9 4 -14 -3 -5 -1 -12 5 -15 6 -4 10 -3 9 2 -3 20 2 27 11
13 8 -12 10 -12 10 -1 0 11 3 11 15 1 13 -11 14 -10 8 6 -6 17 -5 18 11 5 15
-12 17 -12 14 0 -2 9 5 14 20 13 12 -1 22 3 22 8 0 5 5 6 10 3 6 -3 10 0 10 7
0 9 3 9 10 -2 8 -13 10 -13 10 1 0 11 8 15 26 13 20 -2 24 1 20 13 -5 13 -4
14 9 3 8 -7 15 -8 15 -3 0 5 7 10 15 11 8 1 22 3 30 4 8 1 15 5 15 9 0 4 9 6
19 4 11 -2 22 3 25 11 4 9 11 12 18 8 8 -5 7 0 -2 11 -8 10 -9 16 -3 11 9 -5
12 3 10 28 -2 20 -7 39 -12 43 -4 5 -5 2 0 -6 5 -9 4 -12 -3 -7 -7 4 -12 15
-12 24 0 12 -3 13 -12 4 -7 -7 -16 -12 -22 -12 -5 0 -6 3 -3 7 12 12 -23 41
-44 36 -11 -3 -19 0 -19 6 0 7 5 9 12 5 6 -4 8 -3 5 4 -4 5 -17 8 -29 4 -17
-4 -20 -2 -15 12 4 9 3 14 -2 11 -5 -3 -13 0 -16 6 -4 5 -13 8 -20 5 -15 -5
-39 17 -29 27 3 3 -4 3 -17 0 -17 -5 -20 -3 -14 8 7 11 5 11 -10 -1 -10 -8
-16 -10 -13 -5 4 6 3 17 -3 25 -7 13 -9 13 -9 1 0 -12 -2 -12 -12 1 -12 16
-14 16 -28 0z m170 -163 c0 -6 6 -9 13 -6 13 5 43 -30 34 -40 -3 -2 -14 -5
-26 -6 -14 -1 -20 -6 -16 -16 4 -11 3 -11 -9 -2 -10 9 -16 9 -21 1 -5 -8 -11
-8 -19 -1 -7 6 -15 8 -19 5 -3 -3 -4 1 -3 10 1 8 5 19 9 22 4 4 7 16 7 26 0
13 7 18 25 18 14 0 25 -5 25 -11z"/>
<path d="M4520 2236 c0 -2 8 -10 18 -17 15 -13 16 -12 3 4 -13 16 -21 21 -21
13z"/>
<path d="M467 2279 c7 -7 15 -10 18 -7 3 3 -2 9 -12 12 -14 6 -15 5 -6 -5z"/>
<path d="M2470 2280 c0 -5 5 -10 11 -10 5 0 7 5 4 10 -3 6 -8 10 -11 10 -2 0
-4 -4 -4 -10z"/>
<path d="M646 2235 c6 -14 3 -16 -14 -11 -11 4 -23 2 -27 -4 -4 -6 -13 -9 -21
-6 -8 3 -14 1 -14 -5 0 -6 -4 -7 -10 -4 -14 9 -12 -8 3 -24 10 -11 9 -12 -1
-6 -12 6 -12 3 -2 -15 10 -18 14 -20 21 -9 7 12 9 11 9 -1 0 -9 9 -16 19 -16
13 0 17 4 11 11 -6 7 4 9 30 7 32 -3 38 -7 35 -23 -2 -10 0 -19 6 -19 5 0 9
-5 9 -11 0 -5 -6 -7 -12 -3 -10 6 -10 4 0 -7 14 -15 17 -33 4 -25 -5 3 -9 -1
-9 -9 0 -8 4 -12 8 -10 4 3 5 -4 2 -16 -3 -11 -11 -18 -19 -15 -9 3 -11 0 -7
-11 5 -12 3 -14 -7 -8 -9 6 -12 4 -8 -6 4 -10 -2 -15 -20 -17 -14 -1 -32 -8
-40 -15 -13 -10 -14 -9 -7 2 6 11 4 13 -8 8 -9 -3 -19 -2 -22 4 -4 5 -11 7
-16 4 -5 -4 -19 1 -31 9 -12 9 -19 16 -14 16 5 0 1 11 -7 24 -12 18 -13 26 -4
36 10 10 8 12 -7 6 -14 -5 -16 -3 -9 6 5 7 9 25 8 40 -1 21 2 25 12 16 7 -5
10 -15 6 -21 -3 -6 -1 -7 5 -3 9 5 7 14 -4 31 -9 13 -15 28 -15 32 1 4 -4 8
-9 8 -6 0 -15 7 -21 15 -9 13 -10 12 -5 -2 4 -13 0 -18 -16 -18 -17 0 -18 -2
-8 -15 11 -13 10 -14 -5 -9 -15 6 -16 4 -5 -16 11 -20 10 -22 -5 -16 -15 5
-16 4 -6 -8 9 -11 9 -16 0 -21 -8 -6 -7 -10 4 -16 12 -7 14 -16 7 -39 -6 -19
-5 -29 2 -27 6 1 13 -4 16 -12 2 -8 0 -11 -5 -8 -5 3 -10 0 -10 -7 0 -8 5 -12
12 -10 6 3 20 -6 30 -18 11 -13 13 -17 5 -10 -8 6 -18 12 -23 12 -22 0 73 -59
103 -64 8 -1 25 -7 37 -14 30 -17 41 -15 17 2 -13 10 -14 14 -4 13 8 -2 21 -6
28 -10 7 -5 12 -3 12 3 0 6 5 8 10 5 6 -3 10 -1 10 6 0 8 5 8 18 -2 9 -7 14
-10 10 -5 -8 9 15 36 29 36 12 0 56 60 60 80 9 43 9 66 0 78 -6 8 -5 12 3 12
9 0 9 4 3 13 -6 6 -9 20 -8 30 2 9 -1 17 -6 17 -6 0 -9 8 -7 17 2 10 -3 18
-12 18 -8 1 -14 6 -12 13 1 7 -3 12 -8 12 -5 0 -10 8 -10 18 0 14 -2 15 -10 2
-7 -11 -10 -11 -10 -2 0 7 -5 10 -10 7 -6 -4 -18 -1 -26 6 -12 10 -13 9 -8 -6z
m114 -249 c0 -3 -4 -8 -10 -11 -5 -3 -10 -1 -10 4 0 6 5 11 10 11 6 0 10 -2
10 -4z"/>
<path d="M2595 2231 c-3 -5 -2 -12 3 -15 5 -3 9 1 9 9 0 17 -3 19 -12 6z"/>
<path d="M4428 2037 c-8 -9 -19 -13 -23 -9 -3 4 -11 -1 -16 -11 -6 -9 -14 -15
-18 -12 -5 2 -17 -5 -27 -18 -19 -21 -19 -21 1 -7 19 14 19 14 6 -2 -7 -10
-21 -18 -30 -18 -13 0 -13 -2 -2 -9 11 -7 10 -11 -5 -20 -11 -6 -15 -11 -10
-11 5 0 2 -8 -5 -17 -12 -15 -12 -16 1 -8 13 8 13 7 1 -8 -7 -9 -10 -17 -6
-17 4 0 1 -7 -6 -17 -11 -13 -11 -17 -1 -20 6 -3 12 -9 12 -14 0 -6 -6 -7 -12
-3 -9 6 -9 3 1 -9 7 -9 11 -24 7 -32 -3 -9 1 -18 9 -21 8 -4 12 -10 9 -15 -8
-13 10 -11 24 3 9 9 12 8 12 -6 0 -15 3 -16 15 -6 13 11 14 10 9 -4 -5 -12 -2
-15 10 -10 9 3 23 1 30 -5 11 -9 16 -9 22 0 5 8 3 9 -6 4 -9 -6 -11 -4 -6 4 5
7 14 10 22 7 15 -6 15 15 -1 26 -5 4 -1 8 10 8 16 0 17 2 5 9 -8 6 -18 7 -22
5 -4 -3 -8 2 -8 10 0 8 -5 18 -12 22 -7 4 -8 3 -4 -4 4 -7 1 -12 -8 -12 -9 0
-16 7 -16 15 0 8 -5 15 -11 15 -5 0 -7 -5 -3 -12 4 -7 3 -8 -5 -4 -6 4 -9 12
-6 17 4 5 0 9 -7 9 -9 0 -9 3 2 10 11 7 11 10 2 10 -7 0 -10 5 -7 10 4 6 12 7
18 4 7 -4 9 -4 5 1 -4 4 -2 15 5 23 10 13 9 14 -2 7 -10 -6 -10 -2 2 16 10 13
22 25 27 25 6 1 15 2 21 3 5 0 8 5 4 10 -3 5 0 13 6 17 7 4 10 3 6 -2 -3 -5 6
-14 19 -21 13 -6 22 -7 18 -2 -13 22 38 6 68 -21 18 -16 29 -30 24 -30 -5 0
-2 -7 5 -17 11 -13 12 -17 1 -21 -10 -3 -8 -8 5 -19 10 -8 12 -12 6 -8 -7 3
-14 1 -14 -4 -1 -6 -2 -17 -3 -23 -1 -7 -7 -12 -14 -11 -6 2 -9 -3 -6 -11 3
-8 -6 -25 -19 -38 -19 -19 -21 -26 -11 -35 6 -7 15 -9 20 -5 4 4 4 -1 1 -10
-4 -12 -1 -16 14 -15 12 1 18 6 14 16 -5 12 -3 12 12 0 9 -8 14 -9 10 -2 -4 7
0 16 10 22 10 5 18 13 18 18 0 4 3 7 7 6 4 -2 5 4 1 13 -3 9 0 19 6 24 7 4 14
37 16 79 3 58 1 73 -11 78 -13 5 -13 7 -2 14 10 7 9 9 -4 9 -12 0 -15 5 -11
17 4 9 2 14 -3 10 -5 -3 -20 8 -33 24 -13 16 -27 26 -33 23 -5 -3 -19 2 -31
13 -21 17 -21 17 -7 0 14 -18 13 -18 -23 -3 -21 8 -35 11 -32 6 3 -6 2 -10 -4
-10 -5 0 -11 5 -13 11 -3 8 -9 6 -20 -4z"/>
<path d="M719 1710 c-1 -3 -1 -9 0 -14 1 -5 -5 -4 -13 4 -13 10 -16 10 -16 -4
0 -9 -3 -15 -7 -15 -5 1 -15 1 -23 0 -13 -1 -13 -2 0 -11 12 -8 11 -10 -7 -10
-12 0 -27 -10 -34 -21 -9 -17 -8 -20 3 -14 7 3 5 0 -4 -7 -22 -19 -37 -74 -17
-64 8 4 5 0 -5 -8 -11 -9 -14 -16 -8 -16 10 0 10 -5 2 -21 -10 -17 -8 -21 9
-26 20 -5 20 -6 4 -19 -10 -8 -13 -13 -8 -12 6 2 11 -1 12 -5 1 -5 12 -17 24
-28 15 -12 17 -19 8 -19 -12 0 -12 -2 1 -9 8 -6 18 -7 22 -5 4 3 8 -2 8 -10 0
-8 5 -18 12 -22 7 -5 8 -3 3 7 -8 12 -6 12 8 0 9 -7 14 -18 10 -25 -4 -6 1 -5
10 3 9 7 17 9 17 3 0 -5 7 -13 16 -16 8 -3 12 -2 9 4 -8 12 5 13 24 1 8 -5 27
-3 48 6 27 11 33 11 28 1 -3 -7 1 -4 10 7 9 11 19 20 23 20 4 0 6 4 4 9 -2 5
5 5 15 2 9 -4 14 -4 11 0 -8 8 14 34 24 27 4 -2 5 4 1 13 -4 11 -3 15 5 10 6
-3 14 -1 18 5 4 8 3 9 -4 5 -18 -11 -14 5 5 26 16 18 16 19 -3 13 -16 -6 -17
-5 -4 7 15 13 23 61 9 52 -4 -2 -10 0 -14 6 -3 5 1 10 9 10 9 0 16 4 16 10 0
5 -6 7 -13 4 -8 -3 -13 4 -14 18 -1 13 -7 24 -13 26 -5 2 -8 8 -5 12 3 5 -4
15 -15 23 -11 7 -17 17 -12 22 4 4 -1 5 -10 2 -13 -4 -15 -2 -11 10 4 11 2 14
-5 9 -7 -4 -12 -3 -12 2 0 6 -10 8 -22 5 -19 -4 -20 -3 -8 6 13 9 12 11 -5 12
-11 1 -30 3 -42 4 -13 1 -23 -2 -23 -6 0 -5 -5 -9 -11 -9 -5 0 -8 4 -5 8 2 4
-4 8 -15 8 -10 0 -20 -3 -20 -6z m51 -83 c0 5 14 8 30 5 17 -2 30 -8 30 -13 0
-5 7 -9 16 -9 8 0 12 -4 9 -10 -3 -5 2 -10 12 -10 15 0 19 -8 19 -38 0 -21 3
-43 7 -49 4 -6 0 -13 -8 -17 -8 -3 -15 -10 -15 -16 0 -6 6 -8 13 -4 6 3 -1 -5
-18 -19 -16 -14 -33 -23 -37 -20 -5 2 -8 -2 -8 -9 0 -9 -3 -9 -10 2 -6 9 -10
11 -10 3 0 -7 -7 -10 -17 -6 -12 5 -14 3 -8 -8 5 -8 -2 -5 -15 6 -13 11 -20
14 -16 8 4 -7 3 -13 -2 -13 -6 0 -13 7 -16 16 -3 8 -11 12 -17 8 -8 -4 -9 -3
-5 4 4 7 2 12 -4 12 -7 0 -10 7 -7 14 4 10 1 13 -9 9 -7 -3 -14 0 -14 6 0 6 6
11 13 11 7 0 5 5 -5 10 -17 10 -17 18 -4 58 4 13 12 19 18 16 8 -5 9 -1 5 10
-4 10 -3 15 3 11 6 -3 10 -2 10 3 0 5 9 12 21 15 14 4 18 10 13 19 -6 10 -4
10 9 -1 9 -7 17 -9 17 -4z"/>
<path d="M4334 1684 c3 -7 -5 -12 -19 -13 -14 -1 -33 -2 -42 -2 -10 -1 -34
-16 -53 -33 -19 -17 -28 -22 -20 -11 14 18 14 19 -2 6 -10 -7 -18 -22 -18 -33
0 -10 -4 -17 -9 -13 -6 3 -15 -3 -20 -14 -14 -25 -14 -34 0 -26 6 4 5 -2 -2
-13 -7 -12 -17 -18 -22 -15 -5 3 -4 -4 2 -16 9 -16 9 -21 -1 -21 -8 -1 -5 -7
6 -15 16 -12 17 -15 4 -15 -11 0 -15 -6 -11 -20 3 -11 9 -20 14 -20 5 0 5 -7
2 -17 -4 -10 -2 -14 5 -9 6 3 13 2 17 -4 3 -5 1 -10 -5 -10 -7 0 -6 -5 2 -14
7 -8 17 -11 22 -8 5 3 7 -2 3 -11 -4 -11 -2 -14 9 -10 7 3 14 0 14 -6 0 -6 7
-11 16 -11 8 0 13 -4 10 -9 -7 -11 13 -9 33 3 9 6 12 5 7 -2 -3 -6 -2 -13 4
-17 5 -3 10 -2 10 2 0 5 9 9 19 9 11 0 17 -4 14 -9 -3 -5 3 -4 14 2 15 7 23 7
32 -2 10 -9 11 -8 6 6 -5 13 -2 17 13 17 25 0 85 58 78 76 -3 9 0 11 11 7 10
-4 14 -2 9 5 -3 6 2 16 11 22 16 10 16 11 1 6 -12 -3 -15 -1 -11 10 3 7 9 14
13 14 5 0 6 14 3 31 -3 21 -1 29 6 25 7 -4 8 -1 5 8 -3 9 -11 16 -18 16 -7 0
-6 3 2 9 11 6 10 10 -3 15 -10 3 -15 12 -11 21 3 10 -1 15 -12 15 -12 0 -14 2
-4 8 9 6 6 12 -12 22 -14 7 -22 18 -19 24 4 6 -1 5 -10 -2 -14 -12 -16 -11
-12 5 2 12 -2 20 -10 20 -8 0 -12 -5 -9 -11 3 -6 -5 0 -17 14 -15 17 -20 19
-16 8 4 -10 4 -18 0 -18 -3 0 -12 8 -20 18 -8 9 -12 12 -9 6z m-49 -94 c-8
-13 -3 -13 30 0 14 5 24 6 21 1 -3 -5 1 -12 10 -15 8 -3 12 -2 9 3 -3 5 -1 13
5 16 6 4 9 1 8 -7 -2 -7 3 -12 11 -10 9 2 11 -3 7 -13 -3 -9 -2 -13 4 -10 5 3
16 -8 25 -25 8 -16 13 -30 10 -30 -3 0 -1 -10 6 -21 6 -12 7 -19 1 -15 -11 7
-25 -21 -16 -35 3 -5 -2 -9 -11 -9 -9 0 -13 -4 -10 -10 3 -5 1 -10 -5 -10 -6
0 -8 -4 -5 -10 4 -6 -4 -9 -17 -7 -15 1 -22 -3 -20 -12 3 -12 0 -12 -12 -2 -9
7 -23 11 -31 7 -9 -3 -24 3 -35 14 -25 25 -31 25 -24 3 2 -10 -5 2 -17 27 -12
25 -22 53 -22 63 1 42 3 48 15 41 7 -4 8 -3 4 5 -10 15 20 44 36 35 8 -5 7 0
-2 11 -8 10 -10 16 -3 12 6 -4 14 -3 18 3 3 5 8 10 11 10 3 0 2 -4 -1 -10z"/>
<path d="M1033 1411 c9 -11 9 -13 0 -8 -13 8 -22 -2 -29 -35 -3 -13 -7 -30 -9
-38 -2 -8 -4 -19 -4 -23 -1 -5 -7 -5 -13 -1 -8 5 -7 0 2 -11 14 -17 13 -18 -4
-12 -17 7 -17 6 -5 -9 11 -14 11 -18 1 -21 -6 -3 -10 -8 -7 -13 3 -4 -3 -14
-12 -21 -12 -10 -14 -10 -9 -1 9 15 -6 16 -22 0 -9 -9 -12 -9 -12 0 0 7 -5 12
-11 12 -5 0 -8 -3 -6 -7 3 -5 -6 -9 -19 -9 -15 -1 -22 2 -17 10 3 6 -2 4 -13
-5 -20 -17 -49 -15 -38 3 4 7 2 8 -4 4 -7 -4 -12 -14 -12 -23 0 -12 -3 -13
-14 -4 -12 10 -13 8 -9 -8 3 -11 10 -19 17 -18 6 1 10 -4 9 -10 -2 -7 0 -13 5
-13 81 -6 110 -5 106 2 -9 13 3 9 20 -8 17 -16 22 -39 8 -30 -5 3 -9 -1 -9 -9
0 -8 5 -12 10 -8 5 3 5 -2 0 -13 -5 -11 -9 -26 -8 -34 1 -8 -3 -21 -8 -27 -6
-9 -6 -13 2 -13 6 0 11 -7 11 -15 0 -17 32 -36 46 -27 6 4 10 16 10 27 0 11 8
35 18 54 10 18 14 31 8 28 -5 -4 -9 0 -9 8 0 8 4 12 8 10 9 -6 21 24 13 36 -3
5 2 9 10 9 9 0 16 5 16 11 0 6 5 7 13 2 18 -11 39 -10 61 4 21 13 49 6 39 -11
-3 -6 -1 -6 8 2 17 16 32 16 23 0 -5 -9 -2 -9 9 1 9 7 17 10 18 5 0 -5 4 0 8
11 5 12 3 25 -6 33 -7 8 -11 18 -8 23 4 5 -2 6 -11 2 -10 -4 -15 -2 -11 4 3 5
0 10 -8 10 -8 0 -15 -5 -15 -11 0 -6 -5 -4 -10 4 -8 13 -10 13 -10 1 0 -11 -3
-12 -11 -4 -7 7 -21 8 -40 3 -24 -7 -31 -5 -40 11 -7 15 -7 24 1 34 8 10 8 14
-2 18 -8 4 -7 6 4 6 12 1 15 6 11 18 -5 12 -3 14 8 8 12 -7 12 -6 1 7 -9 11
-10 18 -2 23 6 3 8 11 4 16 -3 5 -10 6 -16 3 -7 -5 -9 -1 -5 9 3 9 1 18 -6 21
-9 3 -8 7 2 14 11 8 8 10 -12 9 -21 -2 -23 -5 -14 -16z"/>
<path d="M4038 1356 c-10 -7 -14 -17 -10 -21 4 -5 -1 -5 -10 -2 -13 5 -18 1
-18 -11 0 -15 -2 -15 -10 -2 -8 13 -10 12 -10 -2 0 -10 -5 -18 -11 -18 -5 0
-7 -4 -4 -10 3 -5 -1 -10 -9 -10 -9 0 -13 -6 -10 -14 3 -8 0 -17 -5 -21 -6 -3
-9 -11 -5 -16 3 -5 2 -8 -3 -7 -4 2 -9 -1 -10 -6 -1 -5 -7 -13 -15 -17 -10 -7
-10 -9 0 -9 8 0 11 -9 8 -25 -3 -17 -1 -23 6 -19 7 5 9 1 5 -9 -4 -10 -2 -16
6 -14 7 1 11 -6 9 -15 -2 -12 2 -16 11 -12 8 3 22 -2 31 -11 9 -9 16 -12 16
-7 0 5 13 8 30 7 17 -1 27 2 23 8 -4 7 1 8 13 3 10 -4 15 -4 12 0 -10 9 20 36
32 29 5 -3 10 1 10 9 0 8 4 18 10 21 6 4 7 -1 4 -12 -5 -16 -4 -16 10 1 21 25
42 28 58 8 11 -13 11 -14 -2 -7 -13 7 -13 6 -2 -7 11 -14 9 -19 -10 -33 -16
-12 -17 -16 -5 -11 15 5 16 3 7 -14 -6 -11 -13 -20 -16 -20 -3 0 -2 6 2 13 6
9 4 9 -8 -1 -13 -10 -17 -10 -22 0 -3 7 -3 3 -1 -9 3 -12 0 -25 -6 -29 -8 -4
-9 -3 -5 4 4 7 4 12 -1 12 -4 0 -13 -11 -20 -25 -6 -14 -7 -23 -3 -20 5 3 11
1 15 -5 3 -5 1 -10 -6 -10 -7 0 -9 -3 -6 -7 10 -9 67 -11 61 -1 -3 4 -2 13 2
19 4 8 9 7 15 -2 7 -11 9 -11 9 2 0 20 44 61 55 52 5 -5 3 0 -4 10 -12 15 -12
17 1 12 10 -4 17 1 21 14 3 12 1 19 -4 15 -14 -8 -10 3 7 20 11 11 12 16 3 16
-7 0 -4 7 7 15 10 9 13 14 5 13 -7 -2 -15 6 -17 17 -1 11 -8 21 -13 23 -6 2
-11 10 -11 18 0 9 -4 13 -9 9 -5 -3 -17 2 -25 11 -12 11 -16 12 -16 2 0 -10
-3 -9 -10 2 -7 11 -10 11 -10 2 0 -7 -4 -10 -10 -7 -5 3 -10 0 -11 -7 0 -7 -4
-4 -9 7 -7 16 -9 16 -9 3 -1 -9 -15 -21 -32 -27 -22 -8 -29 -15 -25 -26 3 -10
2 -13 -5 -10 -5 4 -17 1 -26 -7 -14 -11 -16 -11 -9 2 7 13 6 13 -6 0 -19 -21
-39 -23 -31 -3 4 10 2 14 -4 10 -9 -6 -10 11 -4 45 0 4 8 4 18 1 10 -4 14 -2
10 4 -9 14 19 43 39 43 8 0 12 5 9 10 -3 6 -1 11 4 11 6 1 16 3 21 4 6 1 13 3
17 4 3 0 -2 11 -13 23 -10 12 -13 18 -7 14 9 -5 11 -2 7 7 -6 16 -20 17 -43 3
-10 -6 -12 -5 -7 2 9 15 5 15 -16 -2z"/>
<path d="M1239 1158 c-1 -4 -2 -12 -3 -17 0 -5 -5 -13 -10 -18 -5 -4 -6 -3 -2
4 3 6 3 14 -2 17 -4 2 -9 -4 -9 -15 -1 -10 3 -19 8 -19 6 0 7 -4 4 -10 -3 -5
1 -10 9 -10 9 0 16 -7 16 -16 0 -11 6 -14 21 -9 14 5 19 3 15 -3 -8 -13 3 -42
16 -42 6 0 4 8 -3 18 -11 14 -10 13 9 -2 23 -20 31 -43 10 -30 -7 4 -8 3 -4
-5 6 -9 11 -9 21 -1 9 8 14 6 19 -7 4 -10 4 -14 0 -10 -4 4 -14 -2 -21 -13 -8
-11 -19 -17 -25 -14 -7 4 -8 2 -4 -4 4 -7 1 -12 -9 -12 -10 0 -13 -5 -9 -12 4
-7 3 -8 -4 -4 -6 4 -8 14 -5 23 5 12 3 14 -7 8 -10 -6 -12 -4 -7 9 4 9 3 15
-3 11 -10 -6 -52 34 -45 45 2 4 -8 6 -23 5 -15 -1 -26 -7 -25 -13 2 -6 -6 -9
-17 -7 -18 4 -18 2 3 -30 12 -18 25 -31 29 -29 5 3 8 -2 8 -10 0 -9 3 -15 8
-15 26 4 34 -1 22 -16 -10 -12 -8 -14 7 -11 14 3 19 -1 18 -12 -3 -27 -16 -52
-27 -52 -5 0 -6 4 -3 10 3 6 -1 7 -9 4 -22 -8 -79 34 -71 54 5 13 3 13 -12 1
-9 -8 -14 -9 -12 -4 3 6 -2 18 -13 28 -10 9 -18 12 -18 6 0 -8 -4 -8 -15 1
-12 10 -13 8 -10 -10 4 -18 2 -20 -11 -9 -33 27 -9 -15 28 -49 21 -19 35 -38
32 -43 -3 -5 4 -9 16 -9 12 0 18 -4 15 -10 -3 -5 1 -10 10 -10 9 0 14 -4 11
-9 -3 -5 4 -11 15 -14 14 -4 20 -11 16 -21 -4 -10 -1 -13 7 -10 8 3 17 1 20
-4 3 -6 15 -8 27 -5 16 4 17 8 7 14 -9 6 -10 9 -1 9 18 0 53 32 53 47 0 7 6
13 14 13 8 0 18 5 22 12 5 7 2 9 -7 4 -8 -4 -6 -1 3 7 10 8 14 18 10 22 -4 5
1 5 10 2 11 -4 17 -2 15 6 -1 7 4 11 12 9 12 -3 12 -1 1 13 -11 14 -11 16 1
13 8 -2 13 3 12 9 -2 7 3 12 10 10 6 -1 11 3 10 10 -2 7 7 17 18 23 13 7 18
17 15 27 -4 10 -2 13 8 10 10 -4 13 -1 10 8 -3 8 -9 14 -12 13 -20 -2 -32 3
-27 12 3 6 -1 10 -10 10 -9 0 -13 5 -10 10 3 6 -3 10 -14 10 -12 0 -21 7 -21
16 0 8 -3 13 -7 11 -11 -7 -33 19 -25 27 3 4 -1 4 -11 0 -12 -4 -17 -1 -17 10
0 9 -7 16 -16 16 -8 0 -12 5 -9 10 3 6 -1 10 -9 10 -9 0 -16 -5 -16 -12 0 -6
-3 -8 -6 -5 -4 4 -2 13 4 20 9 10 8 14 -3 14 -8 0 -16 -4 -16 -9z m-28 -155
c13 -16 12 -17 -3 -4 -10 7 -18 15 -18 17 0 8 8 3 21 -13z"/>
<path d="M1135 1150 c-3 -5 -1 -10 4 -10 6 0 11 5 11 10 0 6 -2 10 -4 10 -3 0
-8 -4 -11 -10z"/>
<path d="M3768 1086 c-10 -7 -15 -16 -11 -19 3 -4 -2 -7 -13 -7 -16 0 -17 -2
-4 -10 13 -9 13 -10 0 -10 -13 0 -13 -1 0 -10 8 -5 11 -10 5 -10 -5 0 1 -7 15
-15 14 -8 21 -14 16 -15 -6 0 -1 -7 10 -16 10 -8 13 -12 5 -8 -9 5 -12 3 -7
-4 4 -7 14 -12 23 -12 10 0 13 -5 9 -17 -4 -10 -4 -14 0 -11 4 4 19 -6 34 -22
15 -16 31 -26 36 -22 5 4 2 -1 -6 -11 -11 -16 -11 -18 1 -15 8 2 13 -3 12 -9
-2 -7 2 -13 7 -13 6 0 5 -6 -2 -14 -7 -8 -17 -11 -22 -8 -5 3 -7 -4 -4 -15 4
-17 2 -19 -15 -15 -14 3 -18 1 -13 -6 4 -7 1 -12 -6 -12 -10 0 -10 -2 1 -9 11
-7 11 -9 0 -14 -8 -3 -5 -6 8 -6 17 -1 21 -5 16 -18 -5 -15 -3 -15 11 2 10 11
15 14 11 8 -4 -9 -1 -11 9 -7 9 3 13 10 10 15 -3 5 0 9 5 9 14 0 57 43 53 53
-1 4 7 3 18 -3 16 -9 19 -8 13 7 -5 13 -3 15 12 10 15 -6 16 -5 5 8 -11 13
-10 14 5 9 13 -5 16 -4 11 4 -4 7 -1 12 9 12 9 0 14 4 11 9 -3 5 2 15 11 22
10 8 14 9 10 2 -4 -6 -3 -14 2 -17 5 -4 8 5 7 18 -2 17 1 23 11 19 9 -4 11 0
6 13 -5 13 -3 15 8 9 12 -8 12 -6 0 9 -8 9 -20 15 -28 12 -7 -3 -13 -2 -13 3
0 4 -6 8 -14 8 -8 0 -12 -6 -9 -14 3 -8 1 -13 -5 -11 -6 2 -18 -6 -27 -17 -9
-11 -13 -13 -9 -5 7 13 5 13 -9 1 -12 -9 -17 -10 -17 -2 0 7 -4 9 -10 6 -5 -3
-10 1 -10 10 0 9 -4 13 -10 10 -5 -3 -10 1 -10 10 0 9 -4 13 -10 10 -6 -4 -7
1 -3 11 5 13 3 16 -10 11 -11 -4 -14 -2 -11 8 4 9 -4 19 -20 27 -19 8 -23 14
-14 20 10 5 8 8 -5 8 -10 0 -21 8 -24 18 -5 13 -42 53 -47 52 -1 0 -9 -7 -18
-14z"/>
<path d="M4219 1023 c-13 -16 -12 -17 4 -4 16 13 21 21 13 21 -2 0 -10 -8 -17
-17z"/>
<path d="M1497 923 c6 -16 5 -17 -12 -3 -10 8 -16 10 -12 4 8 -14 -14 -76 -32
-90 -8 -6 -11 -16 -7 -23 5 -7 2 -10 -6 -9 -7 2 -12 -3 -10 -10 1 -7 -4 -15
-12 -18 -9 -3 -12 -12 -9 -21 4 -11 2 -14 -5 -9 -8 5 -12 0 -12 -13 0 -12 -5
-21 -11 -21 -6 0 -9 -7 -5 -15 3 -9 -3 -19 -16 -26 -15 -8 -17 -13 -8 -19 7
-4 10 -12 6 -18 -3 -6 -1 -14 5 -18 8 -4 9 -3 5 4 -10 17 6 15 34 -5 14 -9 22
-13 18 -8 -4 4 1 15 12 24 10 9 20 25 22 36 4 24 20 45 30 38 4 -2 5 3 2 11
-3 9 -1 16 6 16 6 0 9 4 6 8 -3 5 1 9 9 9 8 0 17 -7 19 -14 3 -8 2 -11 -3 -8
-5 3 -13 0 -17 -6 -4 -7 -3 -9 2 -6 6 3 16 2 24 -4 12 -6 12 -9 2 -9 -11 0
-11 -2 0 -13 7 -7 13 -34 13 -60 0 -26 3 -47 7 -47 4 0 5 -7 2 -15 -4 -8 -1
-21 5 -29 6 -7 7 -17 3 -21 -4 -5 -1 -5 6 -1 8 5 12 1 12 -11 0 -15 2 -16 10
-3 8 12 10 12 11 -5 0 -11 3 -14 6 -7 4 10 8 10 21 0 10 -8 13 -9 9 -1 -4 6 0
18 8 26 11 12 12 17 2 20 -7 3 -4 6 6 6 11 1 15 5 11 13 -5 8 -2 9 11 4 14 -5
16 -4 6 8 -9 11 -8 15 5 20 9 4 14 9 11 13 -4 3 1 12 11 20 9 8 11 11 4 8 -11
-6 -11 -3 -1 13 7 12 16 19 20 16 5 -2 6 5 4 17 -3 15 0 19 10 15 10 -3 12 0
8 11 -4 9 1 21 10 28 9 7 19 29 22 51 2 21 2 33 -1 26 -4 -9 -11 -7 -24 8
l-19 21 -11 -21 c-6 -11 -15 -18 -21 -15 -5 4 -9 0 -9 -8 0 -8 -7 -20 -15 -27
-8 -7 -15 -20 -15 -29 0 -9 -12 -29 -26 -46 -14 -16 -23 -25 -20 -18 4 6 2 14
-3 17 -5 3 -7 15 -4 26 3 12 0 20 -7 20 -7 0 -10 8 -7 20 3 11 1 20 -4 20 -5
0 -9 5 -9 11 0 5 4 7 10 4 6 -3 7 1 4 9 -3 9 -11 13 -18 9 -7 -5 -7 -2 1 8 7
9 8 20 3 28 -4 8 -6 21 -2 29 3 9 1 13 -5 9 -6 -4 -9 3 -8 17 2 17 -4 27 -22
35 -19 9 -23 8 -17 -1 6 -10 4 -11 -7 0 -19 17 -29 15 -22 -5z"/>
<path d="M3535 901 c-4 -7 -12 -10 -18 -8 -7 3 -25 -7 -42 -22 -16 -14 -24
-19 -17 -11 6 8 12 19 12 24 0 6 -9 -2 -19 -17 -10 -16 -22 -28 -26 -27 -3 1
-9 -1 -12 -4 -4 -3 0 -6 8 -6 8 -1 2 -8 -13 -16 -27 -14 -41 -32 -15 -19 6 4
3 -1 -7 -9 -11 -9 -14 -16 -7 -16 7 0 9 -5 4 -12 -10 -17 -11 -98 -1 -98 5 0
8 -9 8 -20 0 -11 6 -23 14 -26 8 -3 13 -15 11 -26 -3 -14 -1 -17 8 -10 13 11
41 -11 29 -23 -4 -4 -2 -6 3 -5 22 5 36 -1 29 -12 -4 -7 -3 -8 5 -4 6 4 19 2
28 -6 12 -9 15 -9 9 0 -4 7 -1 12 9 12 10 0 13 -5 9 -12 -5 -7 -3 -8 7 -3 7 5
29 10 48 12 19 2 40 8 46 13 7 6 15 7 18 3 4 -3 7 1 7 11 0 9 5 14 10 11 6 -3
13 1 16 9 3 9 11 13 17 9 5 -3 7 -1 3 5 -3 6 -2 13 4 17 6 4 8 11 5 16 -3 5 1
6 9 3 12 -4 14 0 10 20 -3 17 2 28 13 35 12 7 14 10 4 11 -11 0 -11 3 -1 15
10 12 10 15 -1 15 -11 0 -11 2 1 10 11 7 11 10 2 10 -7 0 -11 4 -8 9 4 5 0 12
-6 14 -10 4 -10 6 0 6 10 1 10 5 -2 17 -9 8 -13 20 -10 26 4 6 2 8 -3 5 -6 -4
-16 0 -23 8 -11 13 -10 14 6 9 18 -6 18 -6 -1 9 -11 8 -24 13 -29 10 -5 -4 -6
-1 -2 5 3 6 2 13 -4 17 -5 3 -10 1 -10 -5 0 -6 -5 -8 -10 -5 -6 4 -7 11 -4 17
5 7 0 9 -14 6 -12 -4 -22 -1 -22 4 0 6 -8 4 -17 -3 -10 -8 -14 -9 -10 -2 5 8
0 11 -13 10 -11 -1 -20 -6 -20 -12 0 -5 -4 -4 -9 4 -6 10 -10 10 -16 2z m40
-77 c11 -1 29 -5 39 -9 15 -7 17 -5 11 6 -8 12 -6 12 8 0 9 -7 14 -17 11 -22
-3 -5 2 -12 10 -15 9 -3 14 -10 11 -14 -3 -5 -1 -12 5 -15 8 -5 8 -11 0 -20
-8 -10 -8 -15 1 -21 8 -5 9 -3 4 6 -5 9 -4 11 4 6 9 -6 9 -11 1 -21 -7 -8 -8
-20 -4 -26 4 -8 3 -9 -4 -5 -8 5 -12 0 -12 -13 0 -11 -5 -23 -12 -27 -7 -5 -9
-2 -4 7 4 8 -1 4 -11 -9 -14 -16 -21 -20 -30 -11 -8 8 -13 7 -18 -2 -6 -8 -4
-10 5 -4 9 5 11 4 6 -3 -5 -8 -15 -8 -34 -1 -15 6 -28 10 -29 10 -2 -1 -13 -1
-25 -1 -18 0 -20 2 -8 10 12 7 10 11 -10 18 -14 5 -24 13 -23 18 0 5 -3 8 -8
6 -13 -3 -11 12 3 26 8 8 9 12 1 12 -6 0 -10 8 -8 18 2 9 4 21 4 25 1 5 7 5
14 1 9 -6 9 -5 1 7 -9 11 -9 17 2 27 8 7 14 10 14 7 0 -3 5 -3 11 1 8 4 7 9
-2 16 -10 7 -8 8 9 5 15 -4 25 0 29 10 3 8 9 11 12 6 3 -4 15 -9 26 -9z"/>
<path d="M1147 879 c7 -7 15 -10 18 -7 3 3 -2 9 -12 12 -14 6 -15 5 -6 -5z"/>
<path d="M1060 855 c13 -14 26 -25 28 -25 3 0 -5 11 -18 25 -13 14 -26 25 -28
25 -3 0 5 -11 18 -25z"/>
</g>
</svg>
