<svg width="227" height="220" viewBox="0 0 227 220" fill="none" xmlns="http://www.w3.org/2000/svg">
<g clip-path="url(#clip0_86_286)">
<path d="M38.1667 0C28.1768 0 18.5962 3.86308 11.5323 10.7394C4.46844 17.6158 0.5 26.9421 0.5 36.6667L0.5 66C0.5 151.052 71.3284 220 158.7 220H188.833C198.823 220 208.404 216.137 215.468 209.261C222.532 202.384 226.5 193.058 226.5 183.333V163.064C226.5 158.976 225.33 154.969 223.121 151.493C220.912 148.016 217.752 145.207 213.995 143.381L177.609 125.664C174.712 124.254 171.537 123.467 168.301 123.356C165.064 123.244 161.84 123.811 158.849 125.019C155.857 126.226 153.166 128.045 150.96 130.353C148.753 132.661 147.082 135.403 146.059 138.395L141.569 151.492C140.743 153.896 139.044 155.923 136.792 157.195C134.54 158.467 131.889 158.895 129.335 158.4C113.162 155.245 98.3092 147.504 86.6446 136.152C74.9799 124.8 67.0248 110.343 63.78 94.6C63.2714 92.1143 63.7115 89.5333 65.0179 87.3408C66.3243 85.1484 68.4073 83.495 70.8764 82.6907L87.5853 77.264C92.9851 75.5087 97.5055 71.8343 100.243 66.9753C102.98 62.1163 103.733 56.4306 102.351 51.0547L93.5216 16.676C92.3023 11.9169 89.4841 7.691 85.515 4.6696C81.5458 1.6482 76.6533 0.00462542 71.6147 0L38.1667 0Z" fill="white"/>
</g>
<defs>
<clipPath id="clip0_86_286">
<rect width="226" height="220" fill="white" transform="translate(0.5)"/>
</clipPath>
</defs>
</svg>
