<svg width="26" height="26" viewBox="0 0 26 26" fill="none" xmlns="http://www.w3.org/2000/svg">
<path d="M16.563 15.8998C16.404 15.8478 15.399 15.3948 16.027 13.4858H16.018C17.655 11.7998 18.906 9.08676 18.906 6.41576C18.906 2.30876 16.175 0.155762 13.001 0.155762C9.825 0.155762 7.109 2.30776 7.109 6.41576C7.109 9.09776 8.353 11.8218 10 13.5038C10.642 15.1878 9.494 15.8128 9.254 15.9008C5.93 17.1028 2.03 19.2938 2.03 21.4568V22.2678C2.03 25.2148 7.744 25.8848 13.032 25.8848C18.328 25.8848 23.97 25.2148 23.97 22.2678V21.4568C23.97 19.2288 20.051 17.0548 16.563 15.8998Z" fill="#191F51"/>
</svg>
